<svg xmlns="http://www.w3.org/2000/svg" viewBox="0 0 1440 788" preserveAspectRatio="xMidYMid" width="1440" height="788" style="shape-rendering: auto; display: block; background: rgb(0, 0, 0);" xmlns:xlink="http://www.w3.org/1999/xlink"><g><defs>
  <style type="text/css">
    .g1 {animation: b 5s ease-in-out infinite}
    .g2 {animation: b 5s -1.67s ease-in-out infinite}
    .g3 {animation: b 5s -3.33s ease-in-out infinite}
    @keyframes b { 0% {opacity: 0.70} 50% {opacity: 1} 100% {opacity: 0.70} }
  </style>
</defs>
<g><g class="g1"><path stroke-width="2.0" stroke="#000000" fill="#181818" d="M0.0 0.0L0.0 50.0L43.3 25.0L43.3 -25.0Z"></path><path stroke-width="2.0" stroke="#000000" fill="#181818" d="M86.6 0.0L86.6 50.0L129.9 25.0L129.9 -25.0Z"></path><path stroke-width="2.0" stroke="#000000" fill="#181818" d="M173.2 0.0L173.2 50.0L216.5 25.0L216.5 -25.0Z"></path><path stroke-width="2.0" stroke="#000000" fill="#181818" d="M259.8 0.0L259.8 50.0L303.1 25.0L303.1 -25.0Z"></path><path stroke-width="2.0" stroke="#000000" fill="#181818" d="M346.4 0.0L346.4 50.0L389.7 25.0L389.7 -25.0Z"></path><path stroke-width="2.0" stroke="#000000" fill="#181818" d="M433.0 0.0L433.0 50.0L476.3 25.0L476.3 -25.0Z"></path><path stroke-width="2.0" stroke="#000000" fill="#181818" d="M519.6 0.0L519.6 50.0L562.9 25.0L562.9 -25.0Z"></path><path stroke-width="2.0" stroke="#000000" fill="#181818" d="M606.2 0.0L606.2 50.0L649.5 25.0L649.5 -25.0Z"></path><path stroke-width="2.0" stroke="#000000" fill="#181818" d="M692.8 0.0L692.8 50.0L736.1 25.0L736.1 -25.0Z"></path><path stroke-width="2.0" stroke="#000000" fill="#181818" d="M779.4 0.0L779.4 50.0L822.7 25.0L822.7 -25.0Z"></path><path stroke-width="2.0" stroke="#000000" fill="#181818" d="M866.0 0.0L866.0 50.0L909.3 25.0L909.3 -25.0Z"></path><path stroke-width="2.0" stroke="#000000" fill="#181818" d="M952.6 0.0L952.6 50.0L995.9 25.0L995.9 -25.0Z"></path><path stroke-width="2.0" stroke="#000000" fill="#181818" d="M1039.2 0.0L1039.2 50.0L1082.5 25.0L1082.5 -25.0Z"></path><path stroke-width="2.0" stroke="#000000" fill="#181818" d="M1125.8 0.0L1125.8 50.0L1169.1 25.0L1169.1 -25.0Z"></path><path stroke-width="2.0" stroke="#000000" fill="#181818" d="M1212.4 0.0L1212.4 50.0L1255.7 25.0L1255.7 -25.0Z"></path><path stroke-width="2.0" stroke="#000000" fill="#181818" d="M1299.0 0.0L1299.0 50.0L1342.3 25.0L1342.3 -25.0Z"></path><path stroke-width="2.0" stroke="#000000" fill="#181818" d="M1385.6 0.0L1385.6 50.0L1428.9 25.0L1428.9 -25.0Z"></path><path stroke-width="2.0" stroke="#000000" fill="#181818" d="M1472.2 0.0L1472.2 50.0L1515.5 25.0L1515.5 -25.0Z"></path><path stroke-width="2.0" stroke="#000000" fill="#181818" d="M43.3 75.0L43.3 125.0L86.6 100.0L86.6 50.0Z"></path><path stroke-width="2.0" stroke="#000000" fill="#181818" d="M129.9 75.0L129.9 125.0L173.2 100.0L173.2 50.0Z"></path><path stroke-width="2.0" stroke="#000000" fill="#181818" d="M216.5 75.0L216.5 125.0L259.8 100.0L259.8 50.0Z"></path><path stroke-width="2.0" stroke="#000000" fill="#181818" d="M303.1 75.0L303.1 125.0L346.4 100.0L346.4 50.0Z"></path><path stroke-width="2.0" stroke="#000000" fill="#181818" d="M389.7 75.0L389.7 125.0L433.0 100.0L433.0 50.0Z"></path><path stroke-width="2.0" stroke="#000000" fill="#181818" d="M476.3 75.0L476.3 125.0L519.6 100.0L519.6 50.0Z"></path><path stroke-width="2.0" stroke="#000000" fill="#181818" d="M562.9 75.0L562.9 125.0L606.2 100.0L606.2 50.0Z"></path><path stroke-width="2.0" stroke="#000000" fill="#181818" d="M649.5 75.0L649.5 125.0L692.8 100.0L692.8 50.0Z"></path><path stroke-width="2.0" stroke="#000000" fill="#181818" d="M736.1 75.0L736.1 125.0L779.4 100.0L779.4 50.0Z"></path><path stroke-width="2.0" stroke="#000000" fill="#181818" d="M822.7 75.0L822.7 125.0L866.0 100.0L866.0 50.0Z"></path><path stroke-width="2.0" stroke="#000000" fill="#181818" d="M909.3 75.0L909.3 125.0L952.6 100.0L952.6 50.0Z"></path><path stroke-width="2.0" stroke="#000000" fill="#181818" d="M995.9 75.0L995.9 125.0L1039.2 100.0L1039.2 50.0Z"></path><path stroke-width="2.0" stroke="#000000" fill="#181818" d="M1082.5 75.0L1082.5 125.0L1125.8 100.0L1125.8 50.0Z"></path><path stroke-width="2.0" stroke="#000000" fill="#181818" d="M1169.1 75.0L1169.1 125.0L1212.4 100.0L1212.4 50.0Z"></path><path stroke-width="2.0" stroke="#000000" fill="#181818" d="M1255.7 75.0L1255.7 125.0L1299.0 100.0L1299.0 50.0Z"></path><path stroke-width="2.0" stroke="#000000" fill="#181818" d="M1342.3 75.0L1342.3 125.0L1385.6 100.0L1385.6 50.0Z"></path><path stroke-width="2.0" stroke="#000000" fill="#181818" d="M1428.9 75.0L1428.9 125.0L1472.2 100.0L1472.2 50.0Z"></path><path stroke-width="2.0" stroke="#000000" fill="#181818" d="M1515.5 75.0L1515.5 125.0L1558.8 100.0L1558.8 50.0Z"></path><path stroke-width="2.0" stroke="#000000" fill="#181818" d="M0.0 150.0L0.0 200.0L43.3 175.0L43.3 125.0Z"></path><path stroke-width="2.0" stroke="#000000" fill="#181818" d="M86.6 150.0L86.6 200.0L129.9 175.0L129.9 125.0Z"></path><path stroke-width="2.0" stroke="#000000" fill="#181818" d="M173.2 150.0L173.2 200.0L216.5 175.0L216.5 125.0Z"></path><path stroke-width="2.0" stroke="#000000" fill="#181818" d="M259.8 150.0L259.8 200.0L303.1 175.0L303.1 125.0Z"></path><path stroke-width="2.0" stroke="#000000" fill="#181818" d="M346.4 150.0L346.4 200.0L389.7 175.0L389.7 125.0Z"></path><path stroke-width="2.0" stroke="#000000" fill="#181818" d="M433.0 150.0L433.0 200.0L476.3 175.0L476.3 125.0Z"></path><path stroke-width="2.0" stroke="#000000" fill="#181818" d="M519.6 150.0L519.6 200.0L562.9 175.0L562.9 125.0Z"></path><path stroke-width="2.0" stroke="#000000" fill="#181818" d="M606.2 150.0L606.2 200.0L649.5 175.0L649.5 125.0Z"></path><path stroke-width="2.0" stroke="#000000" fill="#181818" d="M692.8 150.0L692.8 200.0L736.1 175.0L736.1 125.0Z"></path><path stroke-width="2.0" stroke="#000000" fill="#181818" d="M779.4 150.0L779.4 200.0L822.7 175.0L822.7 125.0Z"></path><path stroke-width="2.0" stroke="#000000" fill="#181818" d="M866.0 150.0L866.0 200.0L909.3 175.0L909.3 125.0Z"></path><path stroke-width="2.0" stroke="#000000" fill="#181818" d="M952.6 150.0L952.6 200.0L995.9 175.0L995.9 125.0Z"></path><path stroke-width="2.0" stroke="#000000" fill="#181818" d="M1039.2 150.0L1039.2 200.0L1082.5 175.0L1082.5 125.0Z"></path><path stroke-width="2.0" stroke="#000000" fill="#181818" d="M1125.8 150.0L1125.8 200.0L1169.1 175.0L1169.1 125.0Z"></path><path stroke-width="2.0" stroke="#000000" fill="#181818" d="M1212.4 150.0L1212.4 200.0L1255.7 175.0L1255.7 125.0Z"></path><path stroke-width="2.0" stroke="#000000" fill="#181818" d="M1299.0 150.0L1299.0 200.0L1342.3 175.0L1342.3 125.0Z"></path><path stroke-width="2.0" stroke="#000000" fill="#181818" d="M1385.6 150.0L1385.6 200.0L1428.9 175.0L1428.9 125.0Z"></path><path stroke-width="2.0" stroke="#000000" fill="#181818" d="M1472.2 150.0L1472.2 200.0L1515.5 175.0L1515.5 125.0Z"></path><path stroke-width="2.0" stroke="#000000" fill="#181818" d="M43.3 225.0L43.3 275.0L86.6 250.0L86.6 200.0Z"></path><path stroke-width="2.0" stroke="#000000" fill="#181818" d="M129.9 225.0L129.9 275.0L173.2 250.0L173.2 200.0Z"></path><path stroke-width="2.0" stroke="#000000" fill="#181818" d="M216.5 225.0L216.5 275.0L259.8 250.0L259.8 200.0Z"></path><path stroke-width="2.0" stroke="#000000" fill="#181818" d="M303.1 225.0L303.1 275.0L346.4 250.0L346.4 200.0Z"></path><path stroke-width="2.0" stroke="#000000" fill="#181818" d="M389.7 225.0L389.7 275.0L433.0 250.0L433.0 200.0Z"></path><path stroke-width="2.0" stroke="#000000" fill="#181818" d="M476.3 225.0L476.3 275.0L519.6 250.0L519.6 200.0Z"></path><path stroke-width="2.0" stroke="#000000" fill="#181818" d="M562.9 225.0L562.9 275.0L606.2 250.0L606.2 200.0Z"></path><path stroke-width="2.0" stroke="#000000" fill="#181818" d="M649.5 225.0L649.5 275.0L692.8 250.0L692.8 200.0Z"></path><path stroke-width="2.0" stroke="#000000" fill="#181818" d="M736.1 225.0L736.1 275.0L779.4 250.0L779.4 200.0Z"></path><path stroke-width="2.0" stroke="#000000" fill="#181818" d="M822.7 225.0L822.7 275.0L866.0 250.0L866.0 200.0Z"></path><path stroke-width="2.0" stroke="#000000" fill="#181818" d="M909.3 225.0L909.3 275.0L952.6 250.0L952.6 200.0Z"></path><path stroke-width="2.0" stroke="#000000" fill="#181818" d="M995.9 225.0L995.9 275.0L1039.2 250.0L1039.2 200.0Z"></path><path stroke-width="2.0" stroke="#000000" fill="#181818" d="M1082.5 225.0L1082.5 275.0L1125.8 250.0L1125.8 200.0Z"></path><path stroke-width="2.0" stroke="#000000" fill="#181818" d="M1169.1 225.0L1169.1 275.0L1212.4 250.0L1212.4 200.0Z"></path><path stroke-width="2.0" stroke="#000000" fill="#181818" d="M1255.7 225.0L1255.7 275.0L1299.0 250.0L1299.0 200.0Z"></path><path stroke-width="2.0" stroke="#000000" fill="#181818" d="M1342.3 225.0L1342.3 275.0L1385.6 250.0L1385.6 200.0Z"></path><path stroke-width="2.0" stroke="#000000" fill="#181818" d="M1428.9 225.0L1428.9 275.0L1472.2 250.0L1472.2 200.0Z"></path><path stroke-width="2.0" stroke="#000000" fill="#181818" d="M1515.5 225.0L1515.5 275.0L1558.8 250.0L1558.8 200.0Z"></path><path stroke-width="2.0" stroke="#000000" fill="#181818" d="M0.0 300.0L0.0 350.0L43.3 325.0L43.3 275.0Z"></path><path stroke-width="2.0" stroke="#000000" fill="#181818" d="M86.6 300.0L86.6 350.0L129.9 325.0L129.9 275.0Z"></path><path stroke-width="2.0" stroke="#000000" fill="#181818" d="M173.2 300.0L173.2 350.0L216.5 325.0L216.5 275.0Z"></path><path stroke-width="2.0" stroke="#000000" fill="#181818" d="M259.8 300.0L259.8 350.0L303.1 325.0L303.1 275.0Z"></path><path stroke-width="2.0" stroke="#000000" fill="#181818" d="M346.4 300.0L346.4 350.0L389.7 325.0L389.7 275.0Z"></path><path stroke-width="2.0" stroke="#000000" fill="#181818" d="M433.0 300.0L433.0 350.0L476.3 325.0L476.3 275.0Z"></path><path stroke-width="2.0" stroke="#000000" fill="#181818" d="M519.6 300.0L519.6 350.0L562.9 325.0L562.9 275.0Z"></path><path stroke-width="2.0" stroke="#000000" fill="#181818" d="M606.2 300.0L606.2 350.0L649.5 325.0L649.5 275.0Z"></path><path stroke-width="2.0" stroke="#000000" fill="#181818" d="M692.8 300.0L692.8 350.0L736.1 325.0L736.1 275.0Z"></path><path stroke-width="2.0" stroke="#000000" fill="#181818" d="M779.4 300.0L779.4 350.0L822.7 325.0L822.7 275.0Z"></path><path stroke-width="2.0" stroke="#000000" fill="#181818" d="M866.0 300.0L866.0 350.0L909.3 325.0L909.3 275.0Z"></path><path stroke-width="2.0" stroke="#000000" fill="#181818" d="M952.6 300.0L952.6 350.0L995.9 325.0L995.9 275.0Z"></path><path stroke-width="2.0" stroke="#000000" fill="#181818" d="M1039.2 300.0L1039.2 350.0L1082.5 325.0L1082.5 275.0Z"></path><path stroke-width="2.0" stroke="#000000" fill="#181818" d="M1125.8 300.0L1125.8 350.0L1169.1 325.0L1169.1 275.0Z"></path><path stroke-width="2.0" stroke="#000000" fill="#181818" d="M1212.4 300.0L1212.4 350.0L1255.7 325.0L1255.7 275.0Z"></path><path stroke-width="2.0" stroke="#000000" fill="#181818" d="M1299.0 300.0L1299.0 350.0L1342.3 325.0L1342.3 275.0Z"></path><path stroke-width="2.0" stroke="#000000" fill="#181818" d="M1385.6 300.0L1385.6 350.0L1428.9 325.0L1428.9 275.0Z"></path><path stroke-width="2.0" stroke="#000000" fill="#181818" d="M1472.2 300.0L1472.2 350.0L1515.5 325.0L1515.5 275.0Z"></path><path stroke-width="2.0" stroke="#000000" fill="#181818" d="M43.3 375.0L43.3 425.0L86.6 400.0L86.6 350.0Z"></path><path stroke-width="2.0" stroke="#000000" fill="#181818" d="M129.9 375.0L129.9 425.0L173.2 400.0L173.2 350.0Z"></path><path stroke-width="2.0" stroke="#000000" fill="#181818" d="M216.5 375.0L216.5 425.0L259.8 400.0L259.8 350.0Z"></path><path stroke-width="2.0" stroke="#000000" fill="#181818" d="M303.1 375.0L303.1 425.0L346.4 400.0L346.4 350.0Z"></path><path stroke-width="2.0" stroke="#000000" fill="#181818" d="M389.7 375.0L389.7 425.0L433.0 400.0L433.0 350.0Z"></path><path stroke-width="2.0" stroke="#000000" fill="#181818" d="M476.3 375.0L476.3 425.0L519.6 400.0L519.6 350.0Z"></path><path stroke-width="2.0" stroke="#000000" fill="#181818" d="M562.9 375.0L562.9 425.0L606.2 400.0L606.2 350.0Z"></path><path stroke-width="2.0" stroke="#000000" fill="#181818" d="M649.5 375.0L649.5 425.0L692.8 400.0L692.8 350.0Z"></path><path stroke-width="2.0" stroke="#000000" fill="#181818" d="M736.1 375.0L736.1 425.0L779.4 400.0L779.4 350.0Z"></path><path stroke-width="2.0" stroke="#000000" fill="#181818" d="M822.7 375.0L822.7 425.0L866.0 400.0L866.0 350.0Z"></path><path stroke-width="2.0" stroke="#000000" fill="#181818" d="M909.3 375.0L909.3 425.0L952.6 400.0L952.6 350.0Z"></path><path stroke-width="2.0" stroke="#000000" fill="#181818" d="M995.9 375.0L995.9 425.0L1039.2 400.0L1039.2 350.0Z"></path><path stroke-width="2.0" stroke="#000000" fill="#181818" d="M1082.5 375.0L1082.5 425.0L1125.8 400.0L1125.8 350.0Z"></path><path stroke-width="2.0" stroke="#000000" fill="#181818" d="M1169.1 375.0L1169.1 425.0L1212.4 400.0L1212.4 350.0Z"></path><path stroke-width="2.0" stroke="#000000" fill="#181818" d="M1255.7 375.0L1255.7 425.0L1299.0 400.0L1299.0 350.0Z"></path><path stroke-width="2.0" stroke="#000000" fill="#181818" d="M1342.3 375.0L1342.3 425.0L1385.6 400.0L1385.6 350.0Z"></path><path stroke-width="2.0" stroke="#000000" fill="#181818" d="M1428.9 375.0L1428.9 425.0L1472.2 400.0L1472.2 350.0Z"></path><path stroke-width="2.0" stroke="#000000" fill="#181818" d="M1515.5 375.0L1515.5 425.0L1558.8 400.0L1558.8 350.0Z"></path><path stroke-width="2.0" stroke="#000000" fill="#181818" d="M0.0 450.0L0.0 500.0L43.3 475.0L43.3 425.0Z"></path><path stroke-width="2.0" stroke="#000000" fill="#181818" d="M86.6 450.0L86.6 500.0L129.9 475.0L129.9 425.0Z"></path><path stroke-width="2.0" stroke="#000000" fill="#181818" d="M173.2 450.0L173.2 500.0L216.5 475.0L216.5 425.0Z"></path><path stroke-width="2.0" stroke="#000000" fill="#181818" d="M259.8 450.0L259.8 500.0L303.1 475.0L303.1 425.0Z"></path><path stroke-width="2.0" stroke="#000000" fill="#181818" d="M346.4 450.0L346.4 500.0L389.7 475.0L389.7 425.0Z"></path><path stroke-width="2.0" stroke="#000000" fill="#181818" d="M433.0 450.0L433.0 500.0L476.3 475.0L476.3 425.0Z"></path><path stroke-width="2.0" stroke="#000000" fill="#181818" d="M519.6 450.0L519.6 500.0L562.9 475.0L562.9 425.0Z"></path><path stroke-width="2.0" stroke="#000000" fill="#181818" d="M606.2 450.0L606.2 500.0L649.5 475.0L649.5 425.0Z"></path><path stroke-width="2.0" stroke="#000000" fill="#181818" d="M692.8 450.0L692.8 500.0L736.1 475.0L736.1 425.0Z"></path><path stroke-width="2.0" stroke="#000000" fill="#181818" d="M779.4 450.0L779.4 500.0L822.7 475.0L822.7 425.0Z"></path><path stroke-width="2.0" stroke="#000000" fill="#181818" d="M866.0 450.0L866.0 500.0L909.3 475.0L909.3 425.0Z"></path><path stroke-width="2.0" stroke="#000000" fill="#181818" d="M952.6 450.0L952.6 500.0L995.9 475.0L995.9 425.0Z"></path><path stroke-width="2.0" stroke="#000000" fill="#181818" d="M1039.2 450.0L1039.2 500.0L1082.5 475.0L1082.5 425.0Z"></path><path stroke-width="2.0" stroke="#000000" fill="#181818" d="M1125.8 450.0L1125.8 500.0L1169.1 475.0L1169.1 425.0Z"></path><path stroke-width="2.0" stroke="#000000" fill="#181818" d="M1212.4 450.0L1212.4 500.0L1255.7 475.0L1255.7 425.0Z"></path><path stroke-width="2.0" stroke="#000000" fill="#181818" d="M1299.0 450.0L1299.0 500.0L1342.3 475.0L1342.3 425.0Z"></path><path stroke-width="2.0" stroke="#000000" fill="#181818" d="M1385.6 450.0L1385.6 500.0L1428.9 475.0L1428.9 425.0Z"></path><path stroke-width="2.0" stroke="#000000" fill="#181818" d="M1472.2 450.0L1472.2 500.0L1515.5 475.0L1515.5 425.0Z"></path><path stroke-width="2.0" stroke="#000000" fill="#181818" d="M43.3 525.0L43.3 575.0L86.6 550.0L86.6 500.0Z"></path><path stroke-width="2.0" stroke="#000000" fill="#181818" d="M129.9 525.0L129.9 575.0L173.2 550.0L173.2 500.0Z"></path><path stroke-width="2.0" stroke="#000000" fill="#181818" d="M216.5 525.0L216.5 575.0L259.8 550.0L259.8 500.0Z"></path><path stroke-width="2.0" stroke="#000000" fill="#181818" d="M303.1 525.0L303.1 575.0L346.4 550.0L346.4 500.0Z"></path><path stroke-width="2.0" stroke="#000000" fill="#181818" d="M389.7 525.0L389.7 575.0L433.0 550.0L433.0 500.0Z"></path><path stroke-width="2.0" stroke="#000000" fill="#181818" d="M476.3 525.0L476.3 575.0L519.6 550.0L519.6 500.0Z"></path><path stroke-width="2.0" stroke="#000000" fill="#181818" d="M562.9 525.0L562.9 575.0L606.2 550.0L606.2 500.0Z"></path><path stroke-width="2.0" stroke="#000000" fill="#181818" d="M649.5 525.0L649.5 575.0L692.8 550.0L692.8 500.0Z"></path><path stroke-width="2.0" stroke="#000000" fill="#181818" d="M736.1 525.0L736.1 575.0L779.4 550.0L779.4 500.0Z"></path><path stroke-width="2.0" stroke="#000000" fill="#181818" d="M822.7 525.0L822.7 575.0L866.0 550.0L866.0 500.0Z"></path><path stroke-width="2.0" stroke="#000000" fill="#181818" d="M909.3 525.0L909.3 575.0L952.6 550.0L952.6 500.0Z"></path><path stroke-width="2.0" stroke="#000000" fill="#181818" d="M995.9 525.0L995.9 575.0L1039.2 550.0L1039.2 500.0Z"></path><path stroke-width="2.0" stroke="#000000" fill="#181818" d="M1082.5 525.0L1082.5 575.0L1125.8 550.0L1125.8 500.0Z"></path><path stroke-width="2.0" stroke="#000000" fill="#181818" d="M1169.1 525.0L1169.1 575.0L1212.4 550.0L1212.4 500.0Z"></path><path stroke-width="2.0" stroke="#000000" fill="#181818" d="M1255.7 525.0L1255.7 575.0L1299.0 550.0L1299.0 500.0Z"></path><path stroke-width="2.0" stroke="#000000" fill="#181818" d="M1342.3 525.0L1342.3 575.0L1385.6 550.0L1385.6 500.0Z"></path><path stroke-width="2.0" stroke="#000000" fill="#181818" d="M1428.9 525.0L1428.9 575.0L1472.2 550.0L1472.2 500.0Z"></path><path stroke-width="2.0" stroke="#000000" fill="#181818" d="M1515.5 525.0L1515.5 575.0L1558.8 550.0L1558.8 500.0Z"></path><path stroke-width="2.0" stroke="#000000" fill="#181818" d="M0.0 600.0L0.0 650.0L43.3 625.0L43.3 575.0Z"></path><path stroke-width="2.0" stroke="#000000" fill="#181818" d="M86.6 600.0L86.6 650.0L129.9 625.0L129.9 575.0Z"></path><path stroke-width="2.0" stroke="#000000" fill="#181818" d="M173.2 600.0L173.2 650.0L216.5 625.0L216.5 575.0Z"></path><path stroke-width="2.0" stroke="#000000" fill="#181818" d="M259.8 600.0L259.8 650.0L303.1 625.0L303.1 575.0Z"></path><path stroke-width="2.0" stroke="#000000" fill="#181818" d="M346.4 600.0L346.4 650.0L389.7 625.0L389.7 575.0Z"></path><path stroke-width="2.0" stroke="#000000" fill="#181818" d="M433.0 600.0L433.0 650.0L476.3 625.0L476.3 575.0Z"></path><path stroke-width="2.0" stroke="#000000" fill="#181818" d="M519.6 600.0L519.6 650.0L562.9 625.0L562.9 575.0Z"></path><path stroke-width="2.0" stroke="#000000" fill="#181818" d="M606.2 600.0L606.2 650.0L649.5 625.0L649.5 575.0Z"></path><path stroke-width="2.0" stroke="#000000" fill="#181818" d="M692.8 600.0L692.8 650.0L736.1 625.0L736.1 575.0Z"></path><path stroke-width="2.0" stroke="#000000" fill="#181818" d="M779.4 600.0L779.4 650.0L822.7 625.0L822.7 575.0Z"></path><path stroke-width="2.0" stroke="#000000" fill="#181818" d="M866.0 600.0L866.0 650.0L909.3 625.0L909.3 575.0Z"></path><path stroke-width="2.0" stroke="#000000" fill="#181818" d="M952.6 600.0L952.6 650.0L995.9 625.0L995.9 575.0Z"></path><path stroke-width="2.0" stroke="#000000" fill="#181818" d="M1039.2 600.0L1039.2 650.0L1082.5 625.0L1082.5 575.0Z"></path><path stroke-width="2.0" stroke="#000000" fill="#181818" d="M1125.8 600.0L1125.8 650.0L1169.1 625.0L1169.1 575.0Z"></path><path stroke-width="2.0" stroke="#000000" fill="#181818" d="M1212.4 600.0L1212.4 650.0L1255.7 625.0L1255.7 575.0Z"></path><path stroke-width="2.0" stroke="#000000" fill="#181818" d="M1299.0 600.0L1299.0 650.0L1342.3 625.0L1342.3 575.0Z"></path><path stroke-width="2.0" stroke="#000000" fill="#181818" d="M1385.6 600.0L1385.6 650.0L1428.9 625.0L1428.9 575.0Z"></path><path stroke-width="2.0" stroke="#000000" fill="#181818" d="M1472.2 600.0L1472.2 650.0L1515.5 625.0L1515.5 575.0Z"></path><path stroke-width="2.0" stroke="#000000" fill="#181818" d="M43.3 675.0L43.3 725.0L86.6 700.0L86.6 650.0Z"></path><path stroke-width="2.0" stroke="#000000" fill="#181818" d="M129.9 675.0L129.9 725.0L173.2 700.0L173.2 650.0Z"></path><path stroke-width="2.0" stroke="#000000" fill="#181818" d="M216.5 675.0L216.5 725.0L259.8 700.0L259.8 650.0Z"></path><path stroke-width="2.0" stroke="#000000" fill="#181818" d="M303.1 675.0L303.1 725.0L346.4 700.0L346.4 650.0Z"></path><path stroke-width="2.0" stroke="#000000" fill="#181818" d="M389.7 675.0L389.7 725.0L433.0 700.0L433.0 650.0Z"></path><path stroke-width="2.0" stroke="#000000" fill="#181818" d="M476.3 675.0L476.3 725.0L519.6 700.0L519.6 650.0Z"></path><path stroke-width="2.0" stroke="#000000" fill="#181818" d="M562.9 675.0L562.9 725.0L606.2 700.0L606.2 650.0Z"></path><path stroke-width="2.0" stroke="#000000" fill="#181818" d="M649.5 675.0L649.5 725.0L692.8 700.0L692.8 650.0Z"></path><path stroke-width="2.0" stroke="#000000" fill="#181818" d="M736.1 675.0L736.1 725.0L779.4 700.0L779.4 650.0Z"></path><path stroke-width="2.0" stroke="#000000" fill="#181818" d="M822.7 675.0L822.7 725.0L866.0 700.0L866.0 650.0Z"></path><path stroke-width="2.0" stroke="#000000" fill="#181818" d="M909.3 675.0L909.3 725.0L952.6 700.0L952.6 650.0Z"></path><path stroke-width="2.0" stroke="#000000" fill="#181818" d="M995.9 675.0L995.9 725.0L1039.2 700.0L1039.2 650.0Z"></path><path stroke-width="2.0" stroke="#000000" fill="#181818" d="M1082.5 675.0L1082.5 725.0L1125.8 700.0L1125.8 650.0Z"></path><path stroke-width="2.0" stroke="#000000" fill="#181818" d="M1169.1 675.0L1169.1 725.0L1212.4 700.0L1212.4 650.0Z"></path><path stroke-width="2.0" stroke="#000000" fill="#181818" d="M1255.7 675.0L1255.7 725.0L1299.0 700.0L1299.0 650.0Z"></path><path stroke-width="2.0" stroke="#000000" fill="#181818" d="M1342.3 675.0L1342.3 725.0L1385.6 700.0L1385.6 650.0Z"></path><path stroke-width="2.0" stroke="#000000" fill="#181818" d="M1428.9 675.0L1428.9 725.0L1472.2 700.0L1472.2 650.0Z"></path><path stroke-width="2.0" stroke="#000000" fill="#181818" d="M1515.5 675.0L1515.5 725.0L1558.8 700.0L1558.8 650.0Z"></path><path stroke-width="2.0" stroke="#000000" fill="#181818" d="M0.0 750.0L0.0 800.0L43.3 775.0L43.3 725.0Z"></path><path stroke-width="2.0" stroke="#000000" fill="#181818" d="M86.6 750.0L86.6 800.0L129.9 775.0L129.9 725.0Z"></path><path stroke-width="2.0" stroke="#000000" fill="#181818" d="M173.2 750.0L173.2 800.0L216.5 775.0L216.5 725.0Z"></path><path stroke-width="2.0" stroke="#000000" fill="#181818" d="M259.8 750.0L259.8 800.0L303.1 775.0L303.1 725.0Z"></path><path stroke-width="2.0" stroke="#000000" fill="#181818" d="M346.4 750.0L346.4 800.0L389.7 775.0L389.7 725.0Z"></path><path stroke-width="2.0" stroke="#000000" fill="#181818" d="M433.0 750.0L433.0 800.0L476.3 775.0L476.3 725.0Z"></path><path stroke-width="2.0" stroke="#000000" fill="#181818" d="M519.6 750.0L519.6 800.0L562.9 775.0L562.9 725.0Z"></path><path stroke-width="2.0" stroke="#000000" fill="#181818" d="M606.2 750.0L606.2 800.0L649.5 775.0L649.5 725.0Z"></path><path stroke-width="2.0" stroke="#000000" fill="#181818" d="M692.8 750.0L692.8 800.0L736.1 775.0L736.1 725.0Z"></path><path stroke-width="2.0" stroke="#000000" fill="#181818" d="M779.4 750.0L779.4 800.0L822.7 775.0L822.7 725.0Z"></path><path stroke-width="2.0" stroke="#000000" fill="#181818" d="M866.0 750.0L866.0 800.0L909.3 775.0L909.3 725.0Z"></path><path stroke-width="2.0" stroke="#000000" fill="#181818" d="M952.6 750.0L952.6 800.0L995.9 775.0L995.9 725.0Z"></path><path stroke-width="2.0" stroke="#000000" fill="#181818" d="M1039.2 750.0L1039.2 800.0L1082.5 775.0L1082.5 725.0Z"></path><path stroke-width="2.0" stroke="#000000" fill="#181818" d="M1125.8 750.0L1125.8 800.0L1169.1 775.0L1169.1 725.0Z"></path><path stroke-width="2.0" stroke="#000000" fill="#181818" d="M1212.4 750.0L1212.4 800.0L1255.7 775.0L1255.7 725.0Z"></path><path stroke-width="2.0" stroke="#000000" fill="#181818" d="M1299.0 750.0L1299.0 800.0L1342.3 775.0L1342.3 725.0Z"></path><path stroke-width="2.0" stroke="#000000" fill="#181818" d="M1385.6 750.0L1385.6 800.0L1428.9 775.0L1428.9 725.0Z"></path><path stroke-width="2.0" stroke="#000000" fill="#181818" d="M1472.2 750.0L1472.2 800.0L1515.5 775.0L1515.5 725.0Z"></path><path stroke-width="2.0" stroke="#000000" fill="#181818" d="M43.3 825.0L43.3 875.0L86.6 850.0L86.6 800.0Z"></path><path stroke-width="2.0" stroke="#000000" fill="#181818" d="M129.9 825.0L129.9 875.0L173.2 850.0L173.2 800.0Z"></path><path stroke-width="2.0" stroke="#000000" fill="#181818" d="M216.5 825.0L216.5 875.0L259.8 850.0L259.8 800.0Z"></path><path stroke-width="2.0" stroke="#000000" fill="#181818" d="M303.1 825.0L303.1 875.0L346.4 850.0L346.4 800.0Z"></path><path stroke-width="2.0" stroke="#000000" fill="#181818" d="M389.7 825.0L389.7 875.0L433.0 850.0L433.0 800.0Z"></path><path stroke-width="2.0" stroke="#000000" fill="#181818" d="M476.3 825.0L476.3 875.0L519.6 850.0L519.6 800.0Z"></path><path stroke-width="2.0" stroke="#000000" fill="#181818" d="M562.9 825.0L562.9 875.0L606.2 850.0L606.2 800.0Z"></path><path stroke-width="2.0" stroke="#000000" fill="#181818" d="M649.5 825.0L649.5 875.0L692.8 850.0L692.8 800.0Z"></path><path stroke-width="2.0" stroke="#000000" fill="#181818" d="M736.1 825.0L736.1 875.0L779.4 850.0L779.4 800.0Z"></path><path stroke-width="2.0" stroke="#000000" fill="#181818" d="M822.7 825.0L822.7 875.0L866.0 850.0L866.0 800.0Z"></path><path stroke-width="2.0" stroke="#000000" fill="#181818" d="M909.3 825.0L909.3 875.0L952.6 850.0L952.6 800.0Z"></path><path stroke-width="2.0" stroke="#000000" fill="#181818" d="M995.9 825.0L995.9 875.0L1039.2 850.0L1039.2 800.0Z"></path><path stroke-width="2.0" stroke="#000000" fill="#181818" d="M1082.5 825.0L1082.5 875.0L1125.8 850.0L1125.8 800.0Z"></path><path stroke-width="2.0" stroke="#000000" fill="#181818" d="M1169.1 825.0L1169.1 875.0L1212.4 850.0L1212.4 800.0Z"></path><path stroke-width="2.0" stroke="#000000" fill="#181818" d="M1255.7 825.0L1255.7 875.0L1299.0 850.0L1299.0 800.0Z"></path><path stroke-width="2.0" stroke="#000000" fill="#181818" d="M1342.3 825.0L1342.3 875.0L1385.6 850.0L1385.6 800.0Z"></path><path stroke-width="2.0" stroke="#000000" fill="#181818" d="M1428.9 825.0L1428.9 875.0L1472.2 850.0L1472.2 800.0Z"></path><path stroke-width="2.0" stroke="#000000" fill="#181818" d="M1515.5 825.0L1515.5 875.0L1558.8 850.0L1558.8 800.0Z"></path></g><g class="g2"><path stroke-width="2.0" stroke="#000000" fill="#292929" d="M0.0 0.0L43.3 -25.0L0.0 -50.0L-43.3 -25.0Z"></path><path stroke-width="2.0" stroke="#000000" fill="#292929" d="M86.6 0.0L129.9 -25.0L86.6 -50.0L43.3 -25.0Z"></path><path stroke-width="2.0" stroke="#000000" fill="#292929" d="M173.2 0.0L216.5 -25.0L173.2 -50.0L129.9 -25.0Z"></path><path stroke-width="2.0" stroke="#000000" fill="#292929" d="M259.8 0.0L303.1 -25.0L259.8 -50.0L216.5 -25.0Z"></path><path stroke-width="2.0" stroke="#000000" fill="#292929" d="M346.4 0.0L389.7 -25.0L346.4 -50.0L303.1 -25.0Z"></path><path stroke-width="2.0" stroke="#000000" fill="#292929" d="M433.0 0.0L476.3 -25.0L433.0 -50.0L389.7 -25.0Z"></path><path stroke-width="2.0" stroke="#000000" fill="#292929" d="M519.6 0.0L562.9 -25.0L519.6 -50.0L476.3 -25.0Z"></path><path stroke-width="2.0" stroke="#000000" fill="#292929" d="M606.2 0.0L649.5 -25.0L606.2 -50.0L562.9 -25.0Z"></path><path stroke-width="2.0" stroke="#000000" fill="#292929" d="M692.8 0.0L736.1 -25.0L692.8 -50.0L649.5 -25.0Z"></path><path stroke-width="2.0" stroke="#000000" fill="#292929" d="M779.4 0.0L822.7 -25.0L779.4 -50.0L736.1 -25.0Z"></path><path stroke-width="2.0" stroke="#000000" fill="#292929" d="M866.0 0.0L909.3 -25.0L866.0 -50.0L822.7 -25.0Z"></path><path stroke-width="2.0" stroke="#000000" fill="#292929" d="M952.6 0.0L995.9 -25.0L952.6 -50.0L909.3 -25.0Z"></path><path stroke-width="2.0" stroke="#000000" fill="#292929" d="M1039.2 0.0L1082.5 -25.0L1039.2 -50.0L995.9 -25.0Z"></path><path stroke-width="2.0" stroke="#000000" fill="#292929" d="M1125.8 0.0L1169.1 -25.0L1125.8 -50.0L1082.5 -25.0Z"></path><path stroke-width="2.0" stroke="#000000" fill="#292929" d="M1212.4 0.0L1255.7 -25.0L1212.4 -50.0L1169.1 -25.0Z"></path><path stroke-width="2.0" stroke="#000000" fill="#292929" d="M1299.0 0.0L1342.3 -25.0L1299.0 -50.0L1255.7 -25.0Z"></path><path stroke-width="2.0" stroke="#000000" fill="#292929" d="M1385.6 0.0L1428.9 -25.0L1385.6 -50.0L1342.3 -25.0Z"></path><path stroke-width="2.0" stroke="#000000" fill="#292929" d="M1472.2 0.0L1515.5 -25.0L1472.2 -50.0L1428.9 -25.0Z"></path><path stroke-width="2.0" stroke="#000000" fill="#292929" d="M43.3 75.0L86.6 50.0L43.3 25.0L0.0 50.0Z"></path><path stroke-width="2.0" stroke="#000000" fill="#292929" d="M129.9 75.0L173.2 50.0L129.9 25.0L86.6 50.0Z"></path><path stroke-width="2.0" stroke="#000000" fill="#292929" d="M216.5 75.0L259.8 50.0L216.5 25.0L173.2 50.0Z"></path><path stroke-width="2.0" stroke="#000000" fill="#292929" d="M303.1 75.0L346.4 50.0L303.1 25.0L259.8 50.0Z"></path><path stroke-width="2.0" stroke="#000000" fill="#292929" d="M389.7 75.0L433.0 50.0L389.7 25.0L346.4 50.0Z"></path><path stroke-width="2.0" stroke="#000000" fill="#292929" d="M476.3 75.0L519.6 50.0L476.3 25.0L433.0 50.0Z"></path><path stroke-width="2.0" stroke="#000000" fill="#292929" d="M562.9 75.0L606.2 50.0L562.9 25.0L519.6 50.0Z"></path><path stroke-width="2.0" stroke="#000000" fill="#292929" d="M649.5 75.0L692.8 50.0L649.5 25.0L606.2 50.0Z"></path><path stroke-width="2.0" stroke="#000000" fill="#292929" d="M736.1 75.0L779.4 50.0L736.1 25.0L692.8 50.0Z"></path><path stroke-width="2.0" stroke="#000000" fill="#292929" d="M822.7 75.0L866.0 50.0L822.7 25.0L779.4 50.0Z"></path><path stroke-width="2.0" stroke="#000000" fill="#292929" d="M909.3 75.0L952.6 50.0L909.3 25.0L866.0 50.0Z"></path><path stroke-width="2.0" stroke="#000000" fill="#292929" d="M995.9 75.0L1039.2 50.0L995.9 25.0L952.6 50.0Z"></path><path stroke-width="2.0" stroke="#000000" fill="#292929" d="M1082.5 75.0L1125.8 50.0L1082.5 25.0L1039.2 50.0Z"></path><path stroke-width="2.0" stroke="#000000" fill="#292929" d="M1169.1 75.0L1212.4 50.0L1169.1 25.0L1125.8 50.0Z"></path><path stroke-width="2.0" stroke="#000000" fill="#292929" d="M1255.7 75.0L1299.0 50.0L1255.7 25.0L1212.4 50.0Z"></path><path stroke-width="2.0" stroke="#000000" fill="#292929" d="M1342.3 75.0L1385.6 50.0L1342.3 25.0L1299.0 50.0Z"></path><path stroke-width="2.0" stroke="#000000" fill="#292929" d="M1428.9 75.0L1472.2 50.0L1428.9 25.0L1385.6 50.0Z"></path><path stroke-width="2.0" stroke="#000000" fill="#292929" d="M1515.5 75.0L1558.8 50.0L1515.5 25.0L1472.2 50.0Z"></path><path stroke-width="2.0" stroke="#000000" fill="#292929" d="M0.0 150.0L43.3 125.0L0.0 100.0L-43.3 125.0Z"></path><path stroke-width="2.0" stroke="#000000" fill="#292929" d="M86.6 150.0L129.9 125.0L86.6 100.0L43.3 125.0Z"></path><path stroke-width="2.0" stroke="#000000" fill="#292929" d="M173.2 150.0L216.5 125.0L173.2 100.0L129.9 125.0Z"></path><path stroke-width="2.0" stroke="#000000" fill="#292929" d="M259.8 150.0L303.1 125.0L259.8 100.0L216.5 125.0Z"></path><path stroke-width="2.0" stroke="#000000" fill="#292929" d="M346.4 150.0L389.7 125.0L346.4 100.0L303.1 125.0Z"></path><path stroke-width="2.0" stroke="#000000" fill="#292929" d="M433.0 150.0L476.3 125.0L433.0 100.0L389.7 125.0Z"></path><path stroke-width="2.0" stroke="#000000" fill="#292929" d="M519.6 150.0L562.9 125.0L519.6 100.0L476.3 125.0Z"></path><path stroke-width="2.0" stroke="#000000" fill="#292929" d="M606.2 150.0L649.5 125.0L606.2 100.0L562.9 125.0Z"></path><path stroke-width="2.0" stroke="#000000" fill="#292929" d="M692.8 150.0L736.1 125.0L692.8 100.0L649.5 125.0Z"></path><path stroke-width="2.0" stroke="#000000" fill="#292929" d="M779.4 150.0L822.7 125.0L779.4 100.0L736.1 125.0Z"></path><path stroke-width="2.0" stroke="#000000" fill="#292929" d="M866.0 150.0L909.3 125.0L866.0 100.0L822.7 125.0Z"></path><path stroke-width="2.0" stroke="#000000" fill="#292929" d="M952.6 150.0L995.9 125.0L952.6 100.0L909.3 125.0Z"></path><path stroke-width="2.0" stroke="#000000" fill="#292929" d="M1039.2 150.0L1082.5 125.0L1039.2 100.0L995.9 125.0Z"></path><path stroke-width="2.0" stroke="#000000" fill="#292929" d="M1125.8 150.0L1169.1 125.0L1125.8 100.0L1082.5 125.0Z"></path><path stroke-width="2.0" stroke="#000000" fill="#292929" d="M1212.4 150.0L1255.7 125.0L1212.4 100.0L1169.1 125.0Z"></path><path stroke-width="2.0" stroke="#000000" fill="#292929" d="M1299.0 150.0L1342.3 125.0L1299.0 100.0L1255.7 125.0Z"></path><path stroke-width="2.0" stroke="#000000" fill="#292929" d="M1385.6 150.0L1428.9 125.0L1385.6 100.0L1342.3 125.0Z"></path><path stroke-width="2.0" stroke="#000000" fill="#292929" d="M1472.2 150.0L1515.5 125.0L1472.2 100.0L1428.9 125.0Z"></path><path stroke-width="2.0" stroke="#000000" fill="#292929" d="M43.3 225.0L86.6 200.0L43.3 175.0L0.0 200.0Z"></path><path stroke-width="2.0" stroke="#000000" fill="#292929" d="M129.9 225.0L173.2 200.0L129.9 175.0L86.6 200.0Z"></path><path stroke-width="2.0" stroke="#000000" fill="#292929" d="M216.5 225.0L259.8 200.0L216.5 175.0L173.2 200.0Z"></path><path stroke-width="2.0" stroke="#000000" fill="#292929" d="M303.1 225.0L346.4 200.0L303.1 175.0L259.8 200.0Z"></path><path stroke-width="2.0" stroke="#000000" fill="#292929" d="M389.7 225.0L433.0 200.0L389.7 175.0L346.4 200.0Z"></path><path stroke-width="2.0" stroke="#000000" fill="#292929" d="M476.3 225.0L519.6 200.0L476.3 175.0L433.0 200.0Z"></path><path stroke-width="2.0" stroke="#000000" fill="#292929" d="M562.9 225.0L606.2 200.0L562.9 175.0L519.6 200.0Z"></path><path stroke-width="2.0" stroke="#000000" fill="#292929" d="M649.5 225.0L692.8 200.0L649.5 175.0L606.2 200.0Z"></path><path stroke-width="2.0" stroke="#000000" fill="#292929" d="M736.1 225.0L779.4 200.0L736.1 175.0L692.8 200.0Z"></path><path stroke-width="2.0" stroke="#000000" fill="#292929" d="M822.7 225.0L866.0 200.0L822.7 175.0L779.4 200.0Z"></path><path stroke-width="2.0" stroke="#000000" fill="#292929" d="M909.3 225.0L952.6 200.0L909.3 175.0L866.0 200.0Z"></path><path stroke-width="2.0" stroke="#000000" fill="#292929" d="M995.9 225.0L1039.2 200.0L995.9 175.0L952.6 200.0Z"></path><path stroke-width="2.0" stroke="#000000" fill="#292929" d="M1082.5 225.0L1125.8 200.0L1082.5 175.0L1039.2 200.0Z"></path><path stroke-width="2.0" stroke="#000000" fill="#292929" d="M1169.1 225.0L1212.4 200.0L1169.1 175.0L1125.8 200.0Z"></path><path stroke-width="2.0" stroke="#000000" fill="#292929" d="M1255.7 225.0L1299.0 200.0L1255.7 175.0L1212.4 200.0Z"></path><path stroke-width="2.0" stroke="#000000" fill="#292929" d="M1342.3 225.0L1385.6 200.0L1342.3 175.0L1299.0 200.0Z"></path><path stroke-width="2.0" stroke="#000000" fill="#292929" d="M1428.9 225.0L1472.2 200.0L1428.9 175.0L1385.6 200.0Z"></path><path stroke-width="2.0" stroke="#000000" fill="#292929" d="M1515.5 225.0L1558.8 200.0L1515.5 175.0L1472.2 200.0Z"></path><path stroke-width="2.0" stroke="#000000" fill="#292929" d="M0.0 300.0L43.3 275.0L0.0 250.0L-43.3 275.0Z"></path><path stroke-width="2.0" stroke="#000000" fill="#292929" d="M86.6 300.0L129.9 275.0L86.6 250.0L43.3 275.0Z"></path><path stroke-width="2.0" stroke="#000000" fill="#292929" d="M173.2 300.0L216.5 275.0L173.2 250.0L129.9 275.0Z"></path><path stroke-width="2.0" stroke="#000000" fill="#292929" d="M259.8 300.0L303.1 275.0L259.8 250.0L216.5 275.0Z"></path><path stroke-width="2.0" stroke="#000000" fill="#292929" d="M346.4 300.0L389.7 275.0L346.4 250.0L303.1 275.0Z"></path><path stroke-width="2.0" stroke="#000000" fill="#292929" d="M433.0 300.0L476.3 275.0L433.0 250.0L389.7 275.0Z"></path><path stroke-width="2.0" stroke="#000000" fill="#292929" d="M519.6 300.0L562.9 275.0L519.6 250.0L476.3 275.0Z"></path><path stroke-width="2.0" stroke="#000000" fill="#292929" d="M606.2 300.0L649.5 275.0L606.2 250.0L562.9 275.0Z"></path><path stroke-width="2.0" stroke="#000000" fill="#292929" d="M692.8 300.0L736.1 275.0L692.8 250.0L649.5 275.0Z"></path><path stroke-width="2.0" stroke="#000000" fill="#292929" d="M779.4 300.0L822.7 275.0L779.4 250.0L736.1 275.0Z"></path><path stroke-width="2.0" stroke="#000000" fill="#292929" d="M866.0 300.0L909.3 275.0L866.0 250.0L822.7 275.0Z"></path><path stroke-width="2.0" stroke="#000000" fill="#292929" d="M952.6 300.0L995.9 275.0L952.6 250.0L909.3 275.0Z"></path><path stroke-width="2.0" stroke="#000000" fill="#292929" d="M1039.2 300.0L1082.5 275.0L1039.2 250.0L995.9 275.0Z"></path><path stroke-width="2.0" stroke="#000000" fill="#292929" d="M1125.8 300.0L1169.1 275.0L1125.8 250.0L1082.5 275.0Z"></path><path stroke-width="2.0" stroke="#000000" fill="#292929" d="M1212.4 300.0L1255.7 275.0L1212.4 250.0L1169.1 275.0Z"></path><path stroke-width="2.0" stroke="#000000" fill="#292929" d="M1299.0 300.0L1342.3 275.0L1299.0 250.0L1255.7 275.0Z"></path><path stroke-width="2.0" stroke="#000000" fill="#292929" d="M1385.6 300.0L1428.9 275.0L1385.6 250.0L1342.3 275.0Z"></path><path stroke-width="2.0" stroke="#000000" fill="#292929" d="M1472.2 300.0L1515.5 275.0L1472.2 250.0L1428.9 275.0Z"></path><path stroke-width="2.0" stroke="#000000" fill="#292929" d="M43.3 375.0L86.6 350.0L43.3 325.0L0.0 350.0Z"></path><path stroke-width="2.0" stroke="#000000" fill="#292929" d="M129.9 375.0L173.2 350.0L129.9 325.0L86.6 350.0Z"></path><path stroke-width="2.0" stroke="#000000" fill="#292929" d="M216.5 375.0L259.8 350.0L216.5 325.0L173.2 350.0Z"></path><path stroke-width="2.0" stroke="#000000" fill="#292929" d="M303.1 375.0L346.4 350.0L303.1 325.0L259.8 350.0Z"></path><path stroke-width="2.0" stroke="#000000" fill="#292929" d="M389.7 375.0L433.0 350.0L389.7 325.0L346.4 350.0Z"></path><path stroke-width="2.0" stroke="#000000" fill="#292929" d="M476.3 375.0L519.6 350.0L476.3 325.0L433.0 350.0Z"></path><path stroke-width="2.0" stroke="#000000" fill="#292929" d="M562.9 375.0L606.2 350.0L562.9 325.0L519.6 350.0Z"></path><path stroke-width="2.0" stroke="#000000" fill="#292929" d="M649.5 375.0L692.8 350.0L649.5 325.0L606.2 350.0Z"></path><path stroke-width="2.0" stroke="#000000" fill="#292929" d="M736.1 375.0L779.4 350.0L736.1 325.0L692.8 350.0Z"></path><path stroke-width="2.0" stroke="#000000" fill="#292929" d="M822.7 375.0L866.0 350.0L822.7 325.0L779.4 350.0Z"></path><path stroke-width="2.0" stroke="#000000" fill="#292929" d="M909.3 375.0L952.6 350.0L909.3 325.0L866.0 350.0Z"></path><path stroke-width="2.0" stroke="#000000" fill="#292929" d="M995.9 375.0L1039.2 350.0L995.9 325.0L952.6 350.0Z"></path><path stroke-width="2.0" stroke="#000000" fill="#292929" d="M1082.5 375.0L1125.8 350.0L1082.5 325.0L1039.2 350.0Z"></path><path stroke-width="2.0" stroke="#000000" fill="#292929" d="M1169.1 375.0L1212.4 350.0L1169.1 325.0L1125.8 350.0Z"></path><path stroke-width="2.0" stroke="#000000" fill="#292929" d="M1255.7 375.0L1299.0 350.0L1255.7 325.0L1212.4 350.0Z"></path><path stroke-width="2.0" stroke="#000000" fill="#292929" d="M1342.3 375.0L1385.6 350.0L1342.3 325.0L1299.0 350.0Z"></path><path stroke-width="2.0" stroke="#000000" fill="#292929" d="M1428.9 375.0L1472.2 350.0L1428.9 325.0L1385.6 350.0Z"></path><path stroke-width="2.0" stroke="#000000" fill="#292929" d="M1515.5 375.0L1558.8 350.0L1515.5 325.0L1472.2 350.0Z"></path><path stroke-width="2.0" stroke="#000000" fill="#292929" d="M0.0 450.0L43.3 425.0L0.0 400.0L-43.3 425.0Z"></path><path stroke-width="2.0" stroke="#000000" fill="#292929" d="M86.6 450.0L129.9 425.0L86.6 400.0L43.3 425.0Z"></path><path stroke-width="2.0" stroke="#000000" fill="#292929" d="M173.2 450.0L216.5 425.0L173.2 400.0L129.9 425.0Z"></path><path stroke-width="2.0" stroke="#000000" fill="#292929" d="M259.8 450.0L303.1 425.0L259.8 400.0L216.5 425.0Z"></path><path stroke-width="2.0" stroke="#000000" fill="#292929" d="M346.4 450.0L389.7 425.0L346.4 400.0L303.1 425.0Z"></path><path stroke-width="2.0" stroke="#000000" fill="#292929" d="M433.0 450.0L476.3 425.0L433.0 400.0L389.7 425.0Z"></path><path stroke-width="2.0" stroke="#000000" fill="#292929" d="M519.6 450.0L562.9 425.0L519.6 400.0L476.3 425.0Z"></path><path stroke-width="2.0" stroke="#000000" fill="#292929" d="M606.2 450.0L649.5 425.0L606.2 400.0L562.9 425.0Z"></path><path stroke-width="2.0" stroke="#000000" fill="#292929" d="M692.8 450.0L736.1 425.0L692.8 400.0L649.5 425.0Z"></path><path stroke-width="2.0" stroke="#000000" fill="#292929" d="M779.4 450.0L822.7 425.0L779.4 400.0L736.1 425.0Z"></path><path stroke-width="2.0" stroke="#000000" fill="#292929" d="M866.0 450.0L909.3 425.0L866.0 400.0L822.7 425.0Z"></path><path stroke-width="2.0" stroke="#000000" fill="#292929" d="M952.6 450.0L995.9 425.0L952.6 400.0L909.3 425.0Z"></path><path stroke-width="2.0" stroke="#000000" fill="#292929" d="M1039.2 450.0L1082.5 425.0L1039.2 400.0L995.9 425.0Z"></path><path stroke-width="2.0" stroke="#000000" fill="#292929" d="M1125.8 450.0L1169.1 425.0L1125.8 400.0L1082.5 425.0Z"></path><path stroke-width="2.0" stroke="#000000" fill="#292929" d="M1212.4 450.0L1255.7 425.0L1212.4 400.0L1169.1 425.0Z"></path><path stroke-width="2.0" stroke="#000000" fill="#292929" d="M1299.0 450.0L1342.3 425.0L1299.0 400.0L1255.7 425.0Z"></path><path stroke-width="2.0" stroke="#000000" fill="#292929" d="M1385.6 450.0L1428.9 425.0L1385.6 400.0L1342.3 425.0Z"></path><path stroke-width="2.0" stroke="#000000" fill="#292929" d="M1472.2 450.0L1515.5 425.0L1472.2 400.0L1428.9 425.0Z"></path><path stroke-width="2.0" stroke="#000000" fill="#292929" d="M43.3 525.0L86.6 500.0L43.3 475.0L0.0 500.0Z"></path><path stroke-width="2.0" stroke="#000000" fill="#292929" d="M129.9 525.0L173.2 500.0L129.9 475.0L86.6 500.0Z"></path><path stroke-width="2.0" stroke="#000000" fill="#292929" d="M216.5 525.0L259.8 500.0L216.5 475.0L173.2 500.0Z"></path><path stroke-width="2.0" stroke="#000000" fill="#292929" d="M303.1 525.0L346.4 500.0L303.1 475.0L259.8 500.0Z"></path><path stroke-width="2.0" stroke="#000000" fill="#292929" d="M389.7 525.0L433.0 500.0L389.7 475.0L346.4 500.0Z"></path><path stroke-width="2.0" stroke="#000000" fill="#292929" d="M476.3 525.0L519.6 500.0L476.3 475.0L433.0 500.0Z"></path><path stroke-width="2.0" stroke="#000000" fill="#292929" d="M562.9 525.0L606.2 500.0L562.9 475.0L519.6 500.0Z"></path><path stroke-width="2.0" stroke="#000000" fill="#292929" d="M649.5 525.0L692.8 500.0L649.5 475.0L606.2 500.0Z"></path><path stroke-width="2.0" stroke="#000000" fill="#292929" d="M736.1 525.0L779.4 500.0L736.1 475.0L692.8 500.0Z"></path><path stroke-width="2.0" stroke="#000000" fill="#292929" d="M822.7 525.0L866.0 500.0L822.7 475.0L779.4 500.0Z"></path><path stroke-width="2.0" stroke="#000000" fill="#292929" d="M909.3 525.0L952.6 500.0L909.3 475.0L866.0 500.0Z"></path><path stroke-width="2.0" stroke="#000000" fill="#292929" d="M995.9 525.0L1039.2 500.0L995.9 475.0L952.6 500.0Z"></path><path stroke-width="2.0" stroke="#000000" fill="#292929" d="M1082.5 525.0L1125.8 500.0L1082.5 475.0L1039.2 500.0Z"></path><path stroke-width="2.0" stroke="#000000" fill="#292929" d="M1169.1 525.0L1212.4 500.0L1169.1 475.0L1125.8 500.0Z"></path><path stroke-width="2.0" stroke="#000000" fill="#292929" d="M1255.7 525.0L1299.0 500.0L1255.7 475.0L1212.4 500.0Z"></path><path stroke-width="2.0" stroke="#000000" fill="#292929" d="M1342.3 525.0L1385.6 500.0L1342.3 475.0L1299.0 500.0Z"></path><path stroke-width="2.0" stroke="#000000" fill="#292929" d="M1428.9 525.0L1472.2 500.0L1428.9 475.0L1385.6 500.0Z"></path><path stroke-width="2.0" stroke="#000000" fill="#292929" d="M1515.5 525.0L1558.8 500.0L1515.5 475.0L1472.2 500.0Z"></path><path stroke-width="2.0" stroke="#000000" fill="#292929" d="M0.0 600.0L43.3 575.0L0.0 550.0L-43.3 575.0Z"></path><path stroke-width="2.0" stroke="#000000" fill="#292929" d="M86.6 600.0L129.9 575.0L86.6 550.0L43.3 575.0Z"></path><path stroke-width="2.0" stroke="#000000" fill="#292929" d="M173.2 600.0L216.5 575.0L173.2 550.0L129.9 575.0Z"></path><path stroke-width="2.0" stroke="#000000" fill="#292929" d="M259.8 600.0L303.1 575.0L259.8 550.0L216.5 575.0Z"></path><path stroke-width="2.0" stroke="#000000" fill="#292929" d="M346.4 600.0L389.7 575.0L346.4 550.0L303.1 575.0Z"></path><path stroke-width="2.0" stroke="#000000" fill="#292929" d="M433.0 600.0L476.3 575.0L433.0 550.0L389.7 575.0Z"></path><path stroke-width="2.0" stroke="#000000" fill="#292929" d="M519.6 600.0L562.9 575.0L519.6 550.0L476.3 575.0Z"></path><path stroke-width="2.0" stroke="#000000" fill="#292929" d="M606.2 600.0L649.5 575.0L606.2 550.0L562.9 575.0Z"></path><path stroke-width="2.0" stroke="#000000" fill="#292929" d="M692.8 600.0L736.1 575.0L692.8 550.0L649.5 575.0Z"></path><path stroke-width="2.0" stroke="#000000" fill="#292929" d="M779.4 600.0L822.7 575.0L779.4 550.0L736.1 575.0Z"></path><path stroke-width="2.0" stroke="#000000" fill="#292929" d="M866.0 600.0L909.3 575.0L866.0 550.0L822.7 575.0Z"></path><path stroke-width="2.0" stroke="#000000" fill="#292929" d="M952.6 600.0L995.9 575.0L952.6 550.0L909.3 575.0Z"></path><path stroke-width="2.0" stroke="#000000" fill="#292929" d="M1039.2 600.0L1082.5 575.0L1039.2 550.0L995.9 575.0Z"></path><path stroke-width="2.0" stroke="#000000" fill="#292929" d="M1125.8 600.0L1169.1 575.0L1125.8 550.0L1082.5 575.0Z"></path><path stroke-width="2.0" stroke="#000000" fill="#292929" d="M1212.4 600.0L1255.7 575.0L1212.4 550.0L1169.1 575.0Z"></path><path stroke-width="2.0" stroke="#000000" fill="#292929" d="M1299.0 600.0L1342.3 575.0L1299.0 550.0L1255.7 575.0Z"></path><path stroke-width="2.0" stroke="#000000" fill="#292929" d="M1385.6 600.0L1428.9 575.0L1385.6 550.0L1342.3 575.0Z"></path><path stroke-width="2.0" stroke="#000000" fill="#292929" d="M1472.2 600.0L1515.5 575.0L1472.2 550.0L1428.9 575.0Z"></path><path stroke-width="2.0" stroke="#000000" fill="#292929" d="M43.3 675.0L86.6 650.0L43.3 625.0L0.0 650.0Z"></path><path stroke-width="2.0" stroke="#000000" fill="#292929" d="M129.9 675.0L173.2 650.0L129.9 625.0L86.6 650.0Z"></path><path stroke-width="2.0" stroke="#000000" fill="#292929" d="M216.5 675.0L259.8 650.0L216.5 625.0L173.2 650.0Z"></path><path stroke-width="2.0" stroke="#000000" fill="#292929" d="M303.1 675.0L346.4 650.0L303.1 625.0L259.8 650.0Z"></path><path stroke-width="2.0" stroke="#000000" fill="#292929" d="M389.7 675.0L433.0 650.0L389.7 625.0L346.4 650.0Z"></path><path stroke-width="2.0" stroke="#000000" fill="#292929" d="M476.3 675.0L519.6 650.0L476.3 625.0L433.0 650.0Z"></path><path stroke-width="2.0" stroke="#000000" fill="#292929" d="M562.9 675.0L606.2 650.0L562.9 625.0L519.6 650.0Z"></path><path stroke-width="2.0" stroke="#000000" fill="#292929" d="M649.5 675.0L692.8 650.0L649.5 625.0L606.2 650.0Z"></path><path stroke-width="2.0" stroke="#000000" fill="#292929" d="M736.1 675.0L779.4 650.0L736.1 625.0L692.8 650.0Z"></path><path stroke-width="2.0" stroke="#000000" fill="#292929" d="M822.7 675.0L866.0 650.0L822.7 625.0L779.4 650.0Z"></path><path stroke-width="2.0" stroke="#000000" fill="#292929" d="M909.3 675.0L952.6 650.0L909.3 625.0L866.0 650.0Z"></path><path stroke-width="2.0" stroke="#000000" fill="#292929" d="M995.9 675.0L1039.2 650.0L995.9 625.0L952.6 650.0Z"></path><path stroke-width="2.0" stroke="#000000" fill="#292929" d="M1082.5 675.0L1125.8 650.0L1082.5 625.0L1039.2 650.0Z"></path><path stroke-width="2.0" stroke="#000000" fill="#292929" d="M1169.1 675.0L1212.4 650.0L1169.1 625.0L1125.8 650.0Z"></path><path stroke-width="2.0" stroke="#000000" fill="#292929" d="M1255.7 675.0L1299.0 650.0L1255.7 625.0L1212.4 650.0Z"></path><path stroke-width="2.0" stroke="#000000" fill="#292929" d="M1342.3 675.0L1385.6 650.0L1342.3 625.0L1299.0 650.0Z"></path><path stroke-width="2.0" stroke="#000000" fill="#292929" d="M1428.9 675.0L1472.2 650.0L1428.9 625.0L1385.6 650.0Z"></path><path stroke-width="2.0" stroke="#000000" fill="#292929" d="M1515.5 675.0L1558.8 650.0L1515.5 625.0L1472.2 650.0Z"></path><path stroke-width="2.0" stroke="#000000" fill="#292929" d="M0.0 750.0L43.3 725.0L0.0 700.0L-43.3 725.0Z"></path><path stroke-width="2.0" stroke="#000000" fill="#292929" d="M86.6 750.0L129.9 725.0L86.6 700.0L43.3 725.0Z"></path><path stroke-width="2.0" stroke="#000000" fill="#292929" d="M173.2 750.0L216.5 725.0L173.2 700.0L129.9 725.0Z"></path><path stroke-width="2.0" stroke="#000000" fill="#292929" d="M259.8 750.0L303.1 725.0L259.8 700.0L216.5 725.0Z"></path><path stroke-width="2.0" stroke="#000000" fill="#292929" d="M346.4 750.0L389.7 725.0L346.4 700.0L303.1 725.0Z"></path><path stroke-width="2.0" stroke="#000000" fill="#292929" d="M433.0 750.0L476.3 725.0L433.0 700.0L389.7 725.0Z"></path><path stroke-width="2.0" stroke="#000000" fill="#292929" d="M519.6 750.0L562.9 725.0L519.6 700.0L476.3 725.0Z"></path><path stroke-width="2.0" stroke="#000000" fill="#292929" d="M606.2 750.0L649.5 725.0L606.2 700.0L562.9 725.0Z"></path><path stroke-width="2.0" stroke="#000000" fill="#292929" d="M692.8 750.0L736.1 725.0L692.8 700.0L649.5 725.0Z"></path><path stroke-width="2.0" stroke="#000000" fill="#292929" d="M779.4 750.0L822.7 725.0L779.4 700.0L736.1 725.0Z"></path><path stroke-width="2.0" stroke="#000000" fill="#292929" d="M866.0 750.0L909.3 725.0L866.0 700.0L822.7 725.0Z"></path><path stroke-width="2.0" stroke="#000000" fill="#292929" d="M952.6 750.0L995.9 725.0L952.6 700.0L909.3 725.0Z"></path><path stroke-width="2.0" stroke="#000000" fill="#292929" d="M1039.2 750.0L1082.5 725.0L1039.2 700.0L995.9 725.0Z"></path><path stroke-width="2.0" stroke="#000000" fill="#292929" d="M1125.8 750.0L1169.1 725.0L1125.8 700.0L1082.5 725.0Z"></path><path stroke-width="2.0" stroke="#000000" fill="#292929" d="M1212.4 750.0L1255.7 725.0L1212.4 700.0L1169.1 725.0Z"></path><path stroke-width="2.0" stroke="#000000" fill="#292929" d="M1299.0 750.0L1342.3 725.0L1299.0 700.0L1255.7 725.0Z"></path><path stroke-width="2.0" stroke="#000000" fill="#292929" d="M1385.6 750.0L1428.9 725.0L1385.6 700.0L1342.3 725.0Z"></path><path stroke-width="2.0" stroke="#000000" fill="#292929" d="M1472.2 750.0L1515.5 725.0L1472.2 700.0L1428.9 725.0Z"></path><path stroke-width="2.0" stroke="#000000" fill="#292929" d="M43.3 825.0L86.6 800.0L43.3 775.0L0.0 800.0Z"></path><path stroke-width="2.0" stroke="#000000" fill="#292929" d="M129.9 825.0L173.2 800.0L129.9 775.0L86.6 800.0Z"></path><path stroke-width="2.0" stroke="#000000" fill="#292929" d="M216.5 825.0L259.8 800.0L216.5 775.0L173.2 800.0Z"></path><path stroke-width="2.0" stroke="#000000" fill="#292929" d="M303.1 825.0L346.4 800.0L303.1 775.0L259.8 800.0Z"></path><path stroke-width="2.0" stroke="#000000" fill="#292929" d="M389.7 825.0L433.0 800.0L389.7 775.0L346.4 800.0Z"></path><path stroke-width="2.0" stroke="#000000" fill="#292929" d="M476.3 825.0L519.6 800.0L476.3 775.0L433.0 800.0Z"></path><path stroke-width="2.0" stroke="#000000" fill="#292929" d="M562.9 825.0L606.2 800.0L562.9 775.0L519.6 800.0Z"></path><path stroke-width="2.0" stroke="#000000" fill="#292929" d="M649.5 825.0L692.8 800.0L649.5 775.0L606.2 800.0Z"></path><path stroke-width="2.0" stroke="#000000" fill="#292929" d="M736.1 825.0L779.4 800.0L736.1 775.0L692.8 800.0Z"></path><path stroke-width="2.0" stroke="#000000" fill="#292929" d="M822.7 825.0L866.0 800.0L822.7 775.0L779.4 800.0Z"></path><path stroke-width="2.0" stroke="#000000" fill="#292929" d="M909.3 825.0L952.6 800.0L909.3 775.0L866.0 800.0Z"></path><path stroke-width="2.0" stroke="#000000" fill="#292929" d="M995.9 825.0L1039.2 800.0L995.9 775.0L952.6 800.0Z"></path><path stroke-width="2.0" stroke="#000000" fill="#292929" d="M1082.5 825.0L1125.8 800.0L1082.5 775.0L1039.2 800.0Z"></path><path stroke-width="2.0" stroke="#000000" fill="#292929" d="M1169.1 825.0L1212.4 800.0L1169.1 775.0L1125.8 800.0Z"></path><path stroke-width="2.0" stroke="#000000" fill="#292929" d="M1255.7 825.0L1299.0 800.0L1255.7 775.0L1212.4 800.0Z"></path><path stroke-width="2.0" stroke="#000000" fill="#292929" d="M1342.3 825.0L1385.6 800.0L1342.3 775.0L1299.0 800.0Z"></path><path stroke-width="2.0" stroke="#000000" fill="#292929" d="M1428.9 825.0L1472.2 800.0L1428.9 775.0L1385.6 800.0Z"></path><path stroke-width="2.0" stroke="#000000" fill="#292929" d="M1515.5 825.0L1558.8 800.0L1515.5 775.0L1472.2 800.0Z"></path></g><g class="g3"><path stroke-width="2.0" stroke="#000000" fill="#3a3a3a" d="M0.0 0.0L-43.3 -25.0L-43.3 25.0L0.0 50.0Z"></path><path stroke-width="2.0" stroke="#000000" fill="#3a3a3a" d="M86.6 0.0L43.3 -25.0L43.3 25.0L86.6 50.0Z"></path><path stroke-width="2.0" stroke="#000000" fill="#3a3a3a" d="M173.2 0.0L129.9 -25.0L129.9 25.0L173.2 50.0Z"></path><path stroke-width="2.0" stroke="#000000" fill="#3a3a3a" d="M259.8 0.0L216.5 -25.0L216.5 25.0L259.8 50.0Z"></path><path stroke-width="2.0" stroke="#000000" fill="#3a3a3a" d="M346.4 0.0L303.1 -25.0L303.1 25.0L346.4 50.0Z"></path><path stroke-width="2.0" stroke="#000000" fill="#3a3a3a" d="M433.0 0.0L389.7 -25.0L389.7 25.0L433.0 50.0Z"></path><path stroke-width="2.0" stroke="#000000" fill="#3a3a3a" d="M519.6 0.0L476.3 -25.0L476.3 25.0L519.6 50.0Z"></path><path stroke-width="2.0" stroke="#000000" fill="#3a3a3a" d="M606.2 0.0L562.9 -25.0L562.9 25.0L606.2 50.0Z"></path><path stroke-width="2.0" stroke="#000000" fill="#3a3a3a" d="M692.8 0.0L649.5 -25.0L649.5 25.0L692.8 50.0Z"></path><path stroke-width="2.0" stroke="#000000" fill="#3a3a3a" d="M779.4 0.0L736.1 -25.0L736.1 25.0L779.4 50.0Z"></path><path stroke-width="2.0" stroke="#000000" fill="#3a3a3a" d="M866.0 0.0L822.7 -25.0L822.7 25.0L866.0 50.0Z"></path><path stroke-width="2.0" stroke="#000000" fill="#3a3a3a" d="M952.6 0.0L909.3 -25.0L909.3 25.0L952.6 50.0Z"></path><path stroke-width="2.0" stroke="#000000" fill="#3a3a3a" d="M1039.2 0.0L995.9 -25.0L995.9 25.0L1039.2 50.0Z"></path><path stroke-width="2.0" stroke="#000000" fill="#3a3a3a" d="M1125.8 0.0L1082.5 -25.0L1082.5 25.0L1125.8 50.0Z"></path><path stroke-width="2.0" stroke="#000000" fill="#3a3a3a" d="M1212.4 0.0L1169.1 -25.0L1169.1 25.0L1212.4 50.0Z"></path><path stroke-width="2.0" stroke="#000000" fill="#3a3a3a" d="M1299.0 0.0L1255.7 -25.0L1255.7 25.0L1299.0 50.0Z"></path><path stroke-width="2.0" stroke="#000000" fill="#3a3a3a" d="M1385.6 0.0L1342.3 -25.0L1342.3 25.0L1385.6 50.0Z"></path><path stroke-width="2.0" stroke="#000000" fill="#3a3a3a" d="M1472.2 0.0L1428.9 -25.0L1428.9 25.0L1472.2 50.0Z"></path><path stroke-width="2.0" stroke="#000000" fill="#3a3a3a" d="M43.3 75.0L0.0 50.0L0.0 100.0L43.3 125.0Z"></path><path stroke-width="2.0" stroke="#000000" fill="#3a3a3a" d="M129.9 75.0L86.6 50.0L86.6 100.0L129.9 125.0Z"></path><path stroke-width="2.0" stroke="#000000" fill="#3a3a3a" d="M216.5 75.0L173.2 50.0L173.2 100.0L216.5 125.0Z"></path><path stroke-width="2.0" stroke="#000000" fill="#3a3a3a" d="M303.1 75.0L259.8 50.0L259.8 100.0L303.1 125.0Z"></path><path stroke-width="2.0" stroke="#000000" fill="#3a3a3a" d="M389.7 75.0L346.4 50.0L346.4 100.0L389.7 125.0Z"></path><path stroke-width="2.0" stroke="#000000" fill="#3a3a3a" d="M476.3 75.0L433.0 50.0L433.0 100.0L476.3 125.0Z"></path><path stroke-width="2.0" stroke="#000000" fill="#3a3a3a" d="M562.9 75.0L519.6 50.0L519.6 100.0L562.9 125.0Z"></path><path stroke-width="2.0" stroke="#000000" fill="#3a3a3a" d="M649.5 75.0L606.2 50.0L606.2 100.0L649.5 125.0Z"></path><path stroke-width="2.0" stroke="#000000" fill="#3a3a3a" d="M736.1 75.0L692.8 50.0L692.8 100.0L736.1 125.0Z"></path><path stroke-width="2.0" stroke="#000000" fill="#3a3a3a" d="M822.7 75.0L779.4 50.0L779.4 100.0L822.7 125.0Z"></path><path stroke-width="2.0" stroke="#000000" fill="#3a3a3a" d="M909.3 75.0L866.0 50.0L866.0 100.0L909.3 125.0Z"></path><path stroke-width="2.0" stroke="#000000" fill="#3a3a3a" d="M995.9 75.0L952.6 50.0L952.6 100.0L995.9 125.0Z"></path><path stroke-width="2.0" stroke="#000000" fill="#3a3a3a" d="M1082.5 75.0L1039.2 50.0L1039.2 100.0L1082.5 125.0Z"></path><path stroke-width="2.0" stroke="#000000" fill="#3a3a3a" d="M1169.1 75.0L1125.8 50.0L1125.8 100.0L1169.1 125.0Z"></path><path stroke-width="2.0" stroke="#000000" fill="#3a3a3a" d="M1255.7 75.0L1212.4 50.0L1212.4 100.0L1255.7 125.0Z"></path><path stroke-width="2.0" stroke="#000000" fill="#3a3a3a" d="M1342.3 75.0L1299.0 50.0L1299.0 100.0L1342.3 125.0Z"></path><path stroke-width="2.0" stroke="#000000" fill="#3a3a3a" d="M1428.9 75.0L1385.6 50.0L1385.6 100.0L1428.9 125.0Z"></path><path stroke-width="2.0" stroke="#000000" fill="#3a3a3a" d="M1515.5 75.0L1472.2 50.0L1472.2 100.0L1515.5 125.0Z"></path><path stroke-width="2.0" stroke="#000000" fill="#3a3a3a" d="M0.0 150.0L-43.3 125.0L-43.3 175.0L0.0 200.0Z"></path><path stroke-width="2.0" stroke="#000000" fill="#3a3a3a" d="M86.6 150.0L43.3 125.0L43.3 175.0L86.6 200.0Z"></path><path stroke-width="2.0" stroke="#000000" fill="#3a3a3a" d="M173.2 150.0L129.9 125.0L129.9 175.0L173.2 200.0Z"></path><path stroke-width="2.0" stroke="#000000" fill="#3a3a3a" d="M259.8 150.0L216.5 125.0L216.5 175.0L259.8 200.0Z"></path><path stroke-width="2.0" stroke="#000000" fill="#3a3a3a" d="M346.4 150.0L303.1 125.0L303.1 175.0L346.4 200.0Z"></path><path stroke-width="2.0" stroke="#000000" fill="#3a3a3a" d="M433.0 150.0L389.7 125.0L389.7 175.0L433.0 200.0Z"></path><path stroke-width="2.0" stroke="#000000" fill="#3a3a3a" d="M519.6 150.0L476.3 125.0L476.3 175.0L519.6 200.0Z"></path><path stroke-width="2.0" stroke="#000000" fill="#3a3a3a" d="M606.2 150.0L562.9 125.0L562.9 175.0L606.2 200.0Z"></path><path stroke-width="2.0" stroke="#000000" fill="#3a3a3a" d="M692.8 150.0L649.5 125.0L649.5 175.0L692.8 200.0Z"></path><path stroke-width="2.0" stroke="#000000" fill="#3a3a3a" d="M779.4 150.0L736.1 125.0L736.1 175.0L779.4 200.0Z"></path><path stroke-width="2.0" stroke="#000000" fill="#3a3a3a" d="M866.0 150.0L822.7 125.0L822.7 175.0L866.0 200.0Z"></path><path stroke-width="2.0" stroke="#000000" fill="#3a3a3a" d="M952.6 150.0L909.3 125.0L909.3 175.0L952.6 200.0Z"></path><path stroke-width="2.0" stroke="#000000" fill="#3a3a3a" d="M1039.2 150.0L995.9 125.0L995.9 175.0L1039.2 200.0Z"></path><path stroke-width="2.0" stroke="#000000" fill="#3a3a3a" d="M1125.8 150.0L1082.5 125.0L1082.5 175.0L1125.8 200.0Z"></path><path stroke-width="2.0" stroke="#000000" fill="#3a3a3a" d="M1212.4 150.0L1169.1 125.0L1169.1 175.0L1212.4 200.0Z"></path><path stroke-width="2.0" stroke="#000000" fill="#3a3a3a" d="M1299.0 150.0L1255.7 125.0L1255.7 175.0L1299.0 200.0Z"></path><path stroke-width="2.0" stroke="#000000" fill="#3a3a3a" d="M1385.6 150.0L1342.3 125.0L1342.3 175.0L1385.6 200.0Z"></path><path stroke-width="2.0" stroke="#000000" fill="#3a3a3a" d="M1472.2 150.0L1428.9 125.0L1428.9 175.0L1472.2 200.0Z"></path><path stroke-width="2.0" stroke="#000000" fill="#3a3a3a" d="M43.3 225.0L0.0 200.0L0.0 250.0L43.3 275.0Z"></path><path stroke-width="2.0" stroke="#000000" fill="#3a3a3a" d="M129.9 225.0L86.6 200.0L86.6 250.0L129.9 275.0Z"></path><path stroke-width="2.0" stroke="#000000" fill="#3a3a3a" d="M216.5 225.0L173.2 200.0L173.2 250.0L216.5 275.0Z"></path><path stroke-width="2.0" stroke="#000000" fill="#3a3a3a" d="M303.1 225.0L259.8 200.0L259.8 250.0L303.1 275.0Z"></path><path stroke-width="2.0" stroke="#000000" fill="#3a3a3a" d="M389.7 225.0L346.4 200.0L346.4 250.0L389.7 275.0Z"></path><path stroke-width="2.0" stroke="#000000" fill="#3a3a3a" d="M476.3 225.0L433.0 200.0L433.0 250.0L476.3 275.0Z"></path><path stroke-width="2.0" stroke="#000000" fill="#3a3a3a" d="M562.9 225.0L519.6 200.0L519.6 250.0L562.9 275.0Z"></path><path stroke-width="2.0" stroke="#000000" fill="#3a3a3a" d="M649.5 225.0L606.2 200.0L606.2 250.0L649.5 275.0Z"></path><path stroke-width="2.0" stroke="#000000" fill="#3a3a3a" d="M736.1 225.0L692.8 200.0L692.8 250.0L736.1 275.0Z"></path><path stroke-width="2.0" stroke="#000000" fill="#3a3a3a" d="M822.7 225.0L779.4 200.0L779.4 250.0L822.7 275.0Z"></path><path stroke-width="2.0" stroke="#000000" fill="#3a3a3a" d="M909.3 225.0L866.0 200.0L866.0 250.0L909.3 275.0Z"></path><path stroke-width="2.0" stroke="#000000" fill="#3a3a3a" d="M995.9 225.0L952.6 200.0L952.6 250.0L995.9 275.0Z"></path><path stroke-width="2.0" stroke="#000000" fill="#3a3a3a" d="M1082.5 225.0L1039.2 200.0L1039.2 250.0L1082.5 275.0Z"></path><path stroke-width="2.0" stroke="#000000" fill="#3a3a3a" d="M1169.1 225.0L1125.8 200.0L1125.8 250.0L1169.1 275.0Z"></path><path stroke-width="2.0" stroke="#000000" fill="#3a3a3a" d="M1255.7 225.0L1212.4 200.0L1212.4 250.0L1255.7 275.0Z"></path><path stroke-width="2.0" stroke="#000000" fill="#3a3a3a" d="M1342.3 225.0L1299.0 200.0L1299.0 250.0L1342.3 275.0Z"></path><path stroke-width="2.0" stroke="#000000" fill="#3a3a3a" d="M1428.9 225.0L1385.6 200.0L1385.6 250.0L1428.9 275.0Z"></path><path stroke-width="2.0" stroke="#000000" fill="#3a3a3a" d="M1515.5 225.0L1472.2 200.0L1472.2 250.0L1515.5 275.0Z"></path><path stroke-width="2.0" stroke="#000000" fill="#3a3a3a" d="M0.0 300.0L-43.3 275.0L-43.3 325.0L0.0 350.0Z"></path><path stroke-width="2.0" stroke="#000000" fill="#3a3a3a" d="M86.6 300.0L43.3 275.0L43.3 325.0L86.6 350.0Z"></path><path stroke-width="2.0" stroke="#000000" fill="#3a3a3a" d="M173.2 300.0L129.9 275.0L129.9 325.0L173.2 350.0Z"></path><path stroke-width="2.0" stroke="#000000" fill="#3a3a3a" d="M259.8 300.0L216.5 275.0L216.5 325.0L259.8 350.0Z"></path><path stroke-width="2.0" stroke="#000000" fill="#3a3a3a" d="M346.4 300.0L303.1 275.0L303.1 325.0L346.4 350.0Z"></path><path stroke-width="2.0" stroke="#000000" fill="#3a3a3a" d="M433.0 300.0L389.7 275.0L389.7 325.0L433.0 350.0Z"></path><path stroke-width="2.0" stroke="#000000" fill="#3a3a3a" d="M519.6 300.0L476.3 275.0L476.3 325.0L519.6 350.0Z"></path><path stroke-width="2.0" stroke="#000000" fill="#3a3a3a" d="M606.2 300.0L562.9 275.0L562.9 325.0L606.2 350.0Z"></path><path stroke-width="2.0" stroke="#000000" fill="#3a3a3a" d="M692.8 300.0L649.5 275.0L649.5 325.0L692.8 350.0Z"></path><path stroke-width="2.0" stroke="#000000" fill="#3a3a3a" d="M779.4 300.0L736.1 275.0L736.1 325.0L779.4 350.0Z"></path><path stroke-width="2.0" stroke="#000000" fill="#3a3a3a" d="M866.0 300.0L822.7 275.0L822.7 325.0L866.0 350.0Z"></path><path stroke-width="2.0" stroke="#000000" fill="#3a3a3a" d="M952.6 300.0L909.3 275.0L909.3 325.0L952.6 350.0Z"></path><path stroke-width="2.0" stroke="#000000" fill="#3a3a3a" d="M1039.2 300.0L995.9 275.0L995.9 325.0L1039.2 350.0Z"></path><path stroke-width="2.0" stroke="#000000" fill="#3a3a3a" d="M1125.8 300.0L1082.5 275.0L1082.5 325.0L1125.8 350.0Z"></path><path stroke-width="2.0" stroke="#000000" fill="#3a3a3a" d="M1212.4 300.0L1169.1 275.0L1169.1 325.0L1212.4 350.0Z"></path><path stroke-width="2.0" stroke="#000000" fill="#3a3a3a" d="M1299.0 300.0L1255.7 275.0L1255.7 325.0L1299.0 350.0Z"></path><path stroke-width="2.0" stroke="#000000" fill="#3a3a3a" d="M1385.6 300.0L1342.3 275.0L1342.3 325.0L1385.6 350.0Z"></path><path stroke-width="2.0" stroke="#000000" fill="#3a3a3a" d="M1472.2 300.0L1428.9 275.0L1428.9 325.0L1472.2 350.0Z"></path><path stroke-width="2.0" stroke="#000000" fill="#3a3a3a" d="M43.3 375.0L0.0 350.0L0.0 400.0L43.3 425.0Z"></path><path stroke-width="2.0" stroke="#000000" fill="#3a3a3a" d="M129.9 375.0L86.6 350.0L86.6 400.0L129.9 425.0Z"></path><path stroke-width="2.0" stroke="#000000" fill="#3a3a3a" d="M216.5 375.0L173.2 350.0L173.2 400.0L216.5 425.0Z"></path><path stroke-width="2.0" stroke="#000000" fill="#3a3a3a" d="M303.1 375.0L259.8 350.0L259.8 400.0L303.1 425.0Z"></path><path stroke-width="2.0" stroke="#000000" fill="#3a3a3a" d="M389.7 375.0L346.4 350.0L346.4 400.0L389.7 425.0Z"></path><path stroke-width="2.0" stroke="#000000" fill="#3a3a3a" d="M476.3 375.0L433.0 350.0L433.0 400.0L476.3 425.0Z"></path><path stroke-width="2.0" stroke="#000000" fill="#3a3a3a" d="M562.9 375.0L519.6 350.0L519.6 400.0L562.9 425.0Z"></path><path stroke-width="2.0" stroke="#000000" fill="#3a3a3a" d="M649.5 375.0L606.2 350.0L606.2 400.0L649.5 425.0Z"></path><path stroke-width="2.0" stroke="#000000" fill="#3a3a3a" d="M736.1 375.0L692.8 350.0L692.8 400.0L736.1 425.0Z"></path><path stroke-width="2.0" stroke="#000000" fill="#3a3a3a" d="M822.7 375.0L779.4 350.0L779.4 400.0L822.7 425.0Z"></path><path stroke-width="2.0" stroke="#000000" fill="#3a3a3a" d="M909.3 375.0L866.0 350.0L866.0 400.0L909.3 425.0Z"></path><path stroke-width="2.0" stroke="#000000" fill="#3a3a3a" d="M995.9 375.0L952.6 350.0L952.6 400.0L995.9 425.0Z"></path><path stroke-width="2.0" stroke="#000000" fill="#3a3a3a" d="M1082.5 375.0L1039.2 350.0L1039.2 400.0L1082.5 425.0Z"></path><path stroke-width="2.0" stroke="#000000" fill="#3a3a3a" d="M1169.1 375.0L1125.8 350.0L1125.8 400.0L1169.1 425.0Z"></path><path stroke-width="2.0" stroke="#000000" fill="#3a3a3a" d="M1255.7 375.0L1212.4 350.0L1212.4 400.0L1255.7 425.0Z"></path><path stroke-width="2.0" stroke="#000000" fill="#3a3a3a" d="M1342.3 375.0L1299.0 350.0L1299.0 400.0L1342.3 425.0Z"></path><path stroke-width="2.0" stroke="#000000" fill="#3a3a3a" d="M1428.9 375.0L1385.6 350.0L1385.6 400.0L1428.9 425.0Z"></path><path stroke-width="2.0" stroke="#000000" fill="#3a3a3a" d="M1515.5 375.0L1472.2 350.0L1472.2 400.0L1515.5 425.0Z"></path><path stroke-width="2.0" stroke="#000000" fill="#3a3a3a" d="M0.0 450.0L-43.3 425.0L-43.3 475.0L0.0 500.0Z"></path><path stroke-width="2.0" stroke="#000000" fill="#3a3a3a" d="M86.6 450.0L43.3 425.0L43.3 475.0L86.6 500.0Z"></path><path stroke-width="2.0" stroke="#000000" fill="#3a3a3a" d="M173.2 450.0L129.9 425.0L129.9 475.0L173.2 500.0Z"></path><path stroke-width="2.0" stroke="#000000" fill="#3a3a3a" d="M259.8 450.0L216.5 425.0L216.5 475.0L259.8 500.0Z"></path><path stroke-width="2.0" stroke="#000000" fill="#3a3a3a" d="M346.4 450.0L303.1 425.0L303.1 475.0L346.4 500.0Z"></path><path stroke-width="2.0" stroke="#000000" fill="#3a3a3a" d="M433.0 450.0L389.7 425.0L389.7 475.0L433.0 500.0Z"></path><path stroke-width="2.0" stroke="#000000" fill="#3a3a3a" d="M519.6 450.0L476.3 425.0L476.3 475.0L519.6 500.0Z"></path><path stroke-width="2.0" stroke="#000000" fill="#3a3a3a" d="M606.2 450.0L562.9 425.0L562.9 475.0L606.2 500.0Z"></path><path stroke-width="2.0" stroke="#000000" fill="#3a3a3a" d="M692.8 450.0L649.5 425.0L649.5 475.0L692.8 500.0Z"></path><path stroke-width="2.0" stroke="#000000" fill="#3a3a3a" d="M779.4 450.0L736.1 425.0L736.1 475.0L779.4 500.0Z"></path><path stroke-width="2.0" stroke="#000000" fill="#3a3a3a" d="M866.0 450.0L822.7 425.0L822.7 475.0L866.0 500.0Z"></path><path stroke-width="2.0" stroke="#000000" fill="#3a3a3a" d="M952.6 450.0L909.3 425.0L909.3 475.0L952.6 500.0Z"></path><path stroke-width="2.0" stroke="#000000" fill="#3a3a3a" d="M1039.2 450.0L995.9 425.0L995.9 475.0L1039.2 500.0Z"></path><path stroke-width="2.0" stroke="#000000" fill="#3a3a3a" d="M1125.8 450.0L1082.5 425.0L1082.5 475.0L1125.8 500.0Z"></path><path stroke-width="2.0" stroke="#000000" fill="#3a3a3a" d="M1212.4 450.0L1169.1 425.0L1169.1 475.0L1212.4 500.0Z"></path><path stroke-width="2.0" stroke="#000000" fill="#3a3a3a" d="M1299.0 450.0L1255.7 425.0L1255.7 475.0L1299.0 500.0Z"></path><path stroke-width="2.0" stroke="#000000" fill="#3a3a3a" d="M1385.6 450.0L1342.3 425.0L1342.3 475.0L1385.6 500.0Z"></path><path stroke-width="2.0" stroke="#000000" fill="#3a3a3a" d="M1472.2 450.0L1428.9 425.0L1428.9 475.0L1472.2 500.0Z"></path><path stroke-width="2.0" stroke="#000000" fill="#3a3a3a" d="M43.3 525.0L0.0 500.0L0.0 550.0L43.3 575.0Z"></path><path stroke-width="2.0" stroke="#000000" fill="#3a3a3a" d="M129.9 525.0L86.6 500.0L86.6 550.0L129.9 575.0Z"></path><path stroke-width="2.0" stroke="#000000" fill="#3a3a3a" d="M216.5 525.0L173.2 500.0L173.2 550.0L216.5 575.0Z"></path><path stroke-width="2.0" stroke="#000000" fill="#3a3a3a" d="M303.1 525.0L259.8 500.0L259.8 550.0L303.1 575.0Z"></path><path stroke-width="2.0" stroke="#000000" fill="#3a3a3a" d="M389.7 525.0L346.4 500.0L346.4 550.0L389.7 575.0Z"></path><path stroke-width="2.0" stroke="#000000" fill="#3a3a3a" d="M476.3 525.0L433.0 500.0L433.0 550.0L476.3 575.0Z"></path><path stroke-width="2.0" stroke="#000000" fill="#3a3a3a" d="M562.9 525.0L519.6 500.0L519.6 550.0L562.9 575.0Z"></path><path stroke-width="2.0" stroke="#000000" fill="#3a3a3a" d="M649.5 525.0L606.2 500.0L606.2 550.0L649.5 575.0Z"></path><path stroke-width="2.0" stroke="#000000" fill="#3a3a3a" d="M736.1 525.0L692.8 500.0L692.8 550.0L736.1 575.0Z"></path><path stroke-width="2.0" stroke="#000000" fill="#3a3a3a" d="M822.7 525.0L779.4 500.0L779.4 550.0L822.7 575.0Z"></path><path stroke-width="2.0" stroke="#000000" fill="#3a3a3a" d="M909.3 525.0L866.0 500.0L866.0 550.0L909.3 575.0Z"></path><path stroke-width="2.0" stroke="#000000" fill="#3a3a3a" d="M995.9 525.0L952.6 500.0L952.6 550.0L995.9 575.0Z"></path><path stroke-width="2.0" stroke="#000000" fill="#3a3a3a" d="M1082.5 525.0L1039.2 500.0L1039.2 550.0L1082.5 575.0Z"></path><path stroke-width="2.0" stroke="#000000" fill="#3a3a3a" d="M1169.1 525.0L1125.8 500.0L1125.8 550.0L1169.1 575.0Z"></path><path stroke-width="2.0" stroke="#000000" fill="#3a3a3a" d="M1255.7 525.0L1212.4 500.0L1212.4 550.0L1255.7 575.0Z"></path><path stroke-width="2.0" stroke="#000000" fill="#3a3a3a" d="M1342.3 525.0L1299.0 500.0L1299.0 550.0L1342.3 575.0Z"></path><path stroke-width="2.0" stroke="#000000" fill="#3a3a3a" d="M1428.9 525.0L1385.6 500.0L1385.6 550.0L1428.9 575.0Z"></path><path stroke-width="2.0" stroke="#000000" fill="#3a3a3a" d="M1515.5 525.0L1472.2 500.0L1472.2 550.0L1515.5 575.0Z"></path><path stroke-width="2.0" stroke="#000000" fill="#3a3a3a" d="M0.0 600.0L-43.3 575.0L-43.3 625.0L0.0 650.0Z"></path><path stroke-width="2.0" stroke="#000000" fill="#3a3a3a" d="M86.6 600.0L43.3 575.0L43.3 625.0L86.6 650.0Z"></path><path stroke-width="2.0" stroke="#000000" fill="#3a3a3a" d="M173.2 600.0L129.9 575.0L129.9 625.0L173.2 650.0Z"></path><path stroke-width="2.0" stroke="#000000" fill="#3a3a3a" d="M259.8 600.0L216.5 575.0L216.5 625.0L259.8 650.0Z"></path><path stroke-width="2.0" stroke="#000000" fill="#3a3a3a" d="M346.4 600.0L303.1 575.0L303.1 625.0L346.4 650.0Z"></path><path stroke-width="2.0" stroke="#000000" fill="#3a3a3a" d="M433.0 600.0L389.7 575.0L389.7 625.0L433.0 650.0Z"></path><path stroke-width="2.0" stroke="#000000" fill="#3a3a3a" d="M519.6 600.0L476.3 575.0L476.3 625.0L519.6 650.0Z"></path><path stroke-width="2.0" stroke="#000000" fill="#3a3a3a" d="M606.2 600.0L562.9 575.0L562.9 625.0L606.2 650.0Z"></path><path stroke-width="2.0" stroke="#000000" fill="#3a3a3a" d="M692.8 600.0L649.5 575.0L649.5 625.0L692.8 650.0Z"></path><path stroke-width="2.0" stroke="#000000" fill="#3a3a3a" d="M779.4 600.0L736.1 575.0L736.1 625.0L779.4 650.0Z"></path><path stroke-width="2.0" stroke="#000000" fill="#3a3a3a" d="M866.0 600.0L822.7 575.0L822.7 625.0L866.0 650.0Z"></path><path stroke-width="2.0" stroke="#000000" fill="#3a3a3a" d="M952.6 600.0L909.3 575.0L909.3 625.0L952.6 650.0Z"></path><path stroke-width="2.0" stroke="#000000" fill="#3a3a3a" d="M1039.2 600.0L995.9 575.0L995.9 625.0L1039.2 650.0Z"></path><path stroke-width="2.0" stroke="#000000" fill="#3a3a3a" d="M1125.8 600.0L1082.5 575.0L1082.5 625.0L1125.8 650.0Z"></path><path stroke-width="2.0" stroke="#000000" fill="#3a3a3a" d="M1212.4 600.0L1169.1 575.0L1169.1 625.0L1212.4 650.0Z"></path><path stroke-width="2.0" stroke="#000000" fill="#3a3a3a" d="M1299.0 600.0L1255.7 575.0L1255.7 625.0L1299.0 650.0Z"></path><path stroke-width="2.0" stroke="#000000" fill="#3a3a3a" d="M1385.6 600.0L1342.3 575.0L1342.3 625.0L1385.6 650.0Z"></path><path stroke-width="2.0" stroke="#000000" fill="#3a3a3a" d="M1472.2 600.0L1428.9 575.0L1428.9 625.0L1472.2 650.0Z"></path><path stroke-width="2.0" stroke="#000000" fill="#3a3a3a" d="M43.3 675.0L0.0 650.0L0.0 700.0L43.3 725.0Z"></path><path stroke-width="2.0" stroke="#000000" fill="#3a3a3a" d="M129.9 675.0L86.6 650.0L86.6 700.0L129.9 725.0Z"></path><path stroke-width="2.0" stroke="#000000" fill="#3a3a3a" d="M216.5 675.0L173.2 650.0L173.2 700.0L216.5 725.0Z"></path><path stroke-width="2.0" stroke="#000000" fill="#3a3a3a" d="M303.1 675.0L259.8 650.0L259.8 700.0L303.1 725.0Z"></path><path stroke-width="2.0" stroke="#000000" fill="#3a3a3a" d="M389.7 675.0L346.4 650.0L346.4 700.0L389.7 725.0Z"></path><path stroke-width="2.0" stroke="#000000" fill="#3a3a3a" d="M476.3 675.0L433.0 650.0L433.0 700.0L476.3 725.0Z"></path><path stroke-width="2.0" stroke="#000000" fill="#3a3a3a" d="M562.9 675.0L519.6 650.0L519.6 700.0L562.9 725.0Z"></path><path stroke-width="2.0" stroke="#000000" fill="#3a3a3a" d="M649.5 675.0L606.2 650.0L606.2 700.0L649.5 725.0Z"></path><path stroke-width="2.0" stroke="#000000" fill="#3a3a3a" d="M736.1 675.0L692.8 650.0L692.8 700.0L736.1 725.0Z"></path><path stroke-width="2.0" stroke="#000000" fill="#3a3a3a" d="M822.7 675.0L779.4 650.0L779.4 700.0L822.7 725.0Z"></path><path stroke-width="2.0" stroke="#000000" fill="#3a3a3a" d="M909.3 675.0L866.0 650.0L866.0 700.0L909.3 725.0Z"></path><path stroke-width="2.0" stroke="#000000" fill="#3a3a3a" d="M995.9 675.0L952.6 650.0L952.6 700.0L995.9 725.0Z"></path><path stroke-width="2.0" stroke="#000000" fill="#3a3a3a" d="M1082.5 675.0L1039.2 650.0L1039.2 700.0L1082.5 725.0Z"></path><path stroke-width="2.0" stroke="#000000" fill="#3a3a3a" d="M1169.1 675.0L1125.8 650.0L1125.8 700.0L1169.1 725.0Z"></path><path stroke-width="2.0" stroke="#000000" fill="#3a3a3a" d="M1255.7 675.0L1212.4 650.0L1212.4 700.0L1255.7 725.0Z"></path><path stroke-width="2.0" stroke="#000000" fill="#3a3a3a" d="M1342.3 675.0L1299.0 650.0L1299.0 700.0L1342.3 725.0Z"></path><path stroke-width="2.0" stroke="#000000" fill="#3a3a3a" d="M1428.9 675.0L1385.6 650.0L1385.6 700.0L1428.9 725.0Z"></path><path stroke-width="2.0" stroke="#000000" fill="#3a3a3a" d="M1515.5 675.0L1472.2 650.0L1472.2 700.0L1515.5 725.0Z"></path><path stroke-width="2.0" stroke="#000000" fill="#3a3a3a" d="M0.0 750.0L-43.3 725.0L-43.3 775.0L0.0 800.0Z"></path><path stroke-width="2.0" stroke="#000000" fill="#3a3a3a" d="M86.6 750.0L43.3 725.0L43.3 775.0L86.6 800.0Z"></path><path stroke-width="2.0" stroke="#000000" fill="#3a3a3a" d="M173.2 750.0L129.9 725.0L129.9 775.0L173.2 800.0Z"></path><path stroke-width="2.0" stroke="#000000" fill="#3a3a3a" d="M259.8 750.0L216.5 725.0L216.5 775.0L259.8 800.0Z"></path><path stroke-width="2.0" stroke="#000000" fill="#3a3a3a" d="M346.4 750.0L303.1 725.0L303.1 775.0L346.4 800.0Z"></path><path stroke-width="2.0" stroke="#000000" fill="#3a3a3a" d="M433.0 750.0L389.7 725.0L389.7 775.0L433.0 800.0Z"></path><path stroke-width="2.0" stroke="#000000" fill="#3a3a3a" d="M519.6 750.0L476.3 725.0L476.3 775.0L519.6 800.0Z"></path><path stroke-width="2.0" stroke="#000000" fill="#3a3a3a" d="M606.2 750.0L562.9 725.0L562.9 775.0L606.2 800.0Z"></path><path stroke-width="2.0" stroke="#000000" fill="#3a3a3a" d="M692.8 750.0L649.5 725.0L649.5 775.0L692.8 800.0Z"></path><path stroke-width="2.0" stroke="#000000" fill="#3a3a3a" d="M779.4 750.0L736.1 725.0L736.1 775.0L779.4 800.0Z"></path><path stroke-width="2.0" stroke="#000000" fill="#3a3a3a" d="M866.0 750.0L822.7 725.0L822.7 775.0L866.0 800.0Z"></path><path stroke-width="2.0" stroke="#000000" fill="#3a3a3a" d="M952.6 750.0L909.3 725.0L909.3 775.0L952.6 800.0Z"></path><path stroke-width="2.0" stroke="#000000" fill="#3a3a3a" d="M1039.2 750.0L995.9 725.0L995.9 775.0L1039.2 800.0Z"></path><path stroke-width="2.0" stroke="#000000" fill="#3a3a3a" d="M1125.8 750.0L1082.5 725.0L1082.5 775.0L1125.8 800.0Z"></path><path stroke-width="2.0" stroke="#000000" fill="#3a3a3a" d="M1212.4 750.0L1169.1 725.0L1169.1 775.0L1212.4 800.0Z"></path><path stroke-width="2.0" stroke="#000000" fill="#3a3a3a" d="M1299.0 750.0L1255.7 725.0L1255.7 775.0L1299.0 800.0Z"></path><path stroke-width="2.0" stroke="#000000" fill="#3a3a3a" d="M1385.6 750.0L1342.3 725.0L1342.3 775.0L1385.6 800.0Z"></path><path stroke-width="2.0" stroke="#000000" fill="#3a3a3a" d="M1472.2 750.0L1428.9 725.0L1428.9 775.0L1472.2 800.0Z"></path><path stroke-width="2.0" stroke="#000000" fill="#3a3a3a" d="M43.3 825.0L0.0 800.0L0.0 850.0L43.3 875.0Z"></path><path stroke-width="2.0" stroke="#000000" fill="#3a3a3a" d="M129.9 825.0L86.6 800.0L86.6 850.0L129.9 875.0Z"></path><path stroke-width="2.0" stroke="#000000" fill="#3a3a3a" d="M216.5 825.0L173.2 800.0L173.2 850.0L216.5 875.0Z"></path><path stroke-width="2.0" stroke="#000000" fill="#3a3a3a" d="M303.1 825.0L259.8 800.0L259.8 850.0L303.1 875.0Z"></path><path stroke-width="2.0" stroke="#000000" fill="#3a3a3a" d="M389.7 825.0L346.4 800.0L346.4 850.0L389.7 875.0Z"></path><path stroke-width="2.0" stroke="#000000" fill="#3a3a3a" d="M476.3 825.0L433.0 800.0L433.0 850.0L476.3 875.0Z"></path><path stroke-width="2.0" stroke="#000000" fill="#3a3a3a" d="M562.9 825.0L519.6 800.0L519.6 850.0L562.9 875.0Z"></path><path stroke-width="2.0" stroke="#000000" fill="#3a3a3a" d="M649.5 825.0L606.2 800.0L606.2 850.0L649.5 875.0Z"></path><path stroke-width="2.0" stroke="#000000" fill="#3a3a3a" d="M736.1 825.0L692.8 800.0L692.8 850.0L736.1 875.0Z"></path><path stroke-width="2.0" stroke="#000000" fill="#3a3a3a" d="M822.7 825.0L779.4 800.0L779.4 850.0L822.7 875.0Z"></path><path stroke-width="2.0" stroke="#000000" fill="#3a3a3a" d="M909.3 825.0L866.0 800.0L866.0 850.0L909.3 875.0Z"></path><path stroke-width="2.0" stroke="#000000" fill="#3a3a3a" d="M995.9 825.0L952.6 800.0L952.6 850.0L995.9 875.0Z"></path><path stroke-width="2.0" stroke="#000000" fill="#3a3a3a" d="M1082.5 825.0L1039.2 800.0L1039.2 850.0L1082.5 875.0Z"></path><path stroke-width="2.0" stroke="#000000" fill="#3a3a3a" d="M1169.1 825.0L1125.8 800.0L1125.8 850.0L1169.1 875.0Z"></path><path stroke-width="2.0" stroke="#000000" fill="#3a3a3a" d="M1255.7 825.0L1212.4 800.0L1212.4 850.0L1255.7 875.0Z"></path><path stroke-width="2.0" stroke="#000000" fill="#3a3a3a" d="M1342.3 825.0L1299.0 800.0L1299.0 850.0L1342.3 875.0Z"></path><path stroke-width="2.0" stroke="#000000" fill="#3a3a3a" d="M1428.9 825.0L1385.6 800.0L1385.6 850.0L1428.9 875.0Z"></path><path stroke-width="2.0" stroke="#000000" fill="#3a3a3a" d="M1515.5 825.0L1472.2 800.0L1472.2 850.0L1515.5 875.0Z"></path></g></g><g></g></g><!-- [ldio] generated by https://loading.io --></svg>