<svg xmlns="http://www.w3.org/2000/svg" xmlns:xlink="http://www.w3.org/1999/xlink" viewBox="0 0 113 113" preserveAspectRatio="xMidYMid" width="113" height="113" style="shape-rendering: auto; background: rgb(3, 2, 2);"><g id="pattern-group" transform="scale(0.44140625)">


<defs><g id="id-0.4748987739317174"><style type="text/css">.st0{fill:#d1d1d1}.st1{fill:#454545}</style><path d="M16.987,92.173c-1.697,0-3.252-0.621-4.379-1.747l-3.363-3.363c-2.688-2.69-2.222-7.368,1.062-10.652 c1.777-1.777,4.053-2.798,6.247-2.805l5.423-5.423c-3.206-2.837-4.666-3.65-4.916-3.78c-4.273-1.695-4.943-4.097-4.748-5.818 c0.197-1.737,1.405-3.95,6.045-4.626c0.167-0.024,0.786-0.103,1.764-0.103c2.176,0,6.163,0.395,10.677,2.739l5.54-6.211 L11.65,28.363c-0.641-0.572-1.057-1.353-1.174-2.204l-1.95-14.231C8.37,10.789,8.765,9.645,9.59,8.846 c0.679-0.659,1.583-1.019,2.513-1.019c0.199,0,0.4,0.016,0.6,0.05l14.276,2.406c0.81,0.137,1.549,0.545,2.095,1.158l20.991,23.551 l21.112-23.67c0.571-0.641,1.353-1.057,2.203-1.174l14.231-1.951c0.164-0.022,0.328-0.034,0.491-0.034 c0.97,0,1.906,0.391,2.591,1.097c0.8,0.825,1.16,1.98,0.969,3.113L89.256,26.65c-0.136,0.81-0.545,1.549-1.158,2.095L63.802,50.402 l5.401,6.06c4.512-2.342,8.499-2.738,10.674-2.738c0.979,0,1.599,0.079,1.765,0.103c4.639,0.676,5.849,2.888,6.045,4.624 c0.195,1.722-0.475,4.124-4.748,5.819c-0.25,0.13-1.71,0.943-4.915,3.78l5.424,5.424c2.193,0.007,4.468,1.028,6.245,2.805 c3.284,3.284,3.75,7.963,1.062,10.652l-3.365,3.364c-1.126,1.126-2.68,1.746-4.378,1.746c0,0,0,0-0.001,0 c-2.202,0-4.489-1.024-6.273-2.81c-1.814-1.813-2.797-4.095-2.803-6.245l-5.425-5.424c-2.837,3.206-3.65,4.666-3.779,4.915 c-1.257,3.168-3.051,4.776-5.336,4.776c-1.577,0-4.338-0.789-5.109-6.072c-0.038-0.265-0.79-5.816,2.637-12.439l-6.848-6.108 l-7,6.241c3.427,6.623,2.675,12.174,2.637,12.437c-0.77,5.284-3.531,6.073-5.108,6.073c-2.284,0-4.078-1.606-5.335-4.775 c-0.13-0.251-0.944-1.71-3.781-4.915l-5.425,5.425c-0.008,2.149-0.991,4.432-2.804,6.244C21.475,91.149,19.189,92.173,16.987,92.173 z" class="st0" data-fill="c1" style="fill: rgb(255, 106, 0);"></path><path d="M88.202,84.379l-3.364,3.363c-1.238,1.239-3.721,0.763-5.546-1.062c-1.559-1.559-2.129-3.597-1.489-4.93 l-9.396-9.396c-6.086,6.368-6.997,8.71-6.997,8.71c-1.396,3.594-2.993,3.412-3.55-0.402c0,0-0.866-5.94,3.688-12.632l-11.47-10.231 L38.452,68.16c4.553,6.692,3.688,12.632,3.688,12.632c-0.556,3.814-2.153,3.995-3.548,0.402c0,0-0.911-2.342-7.001-8.712 l-9.395,9.395c0.641,1.333,0.072,3.373-1.489,4.934c-1.825,1.824-4.308,2.3-5.546,1.062l-3.364-3.364 c-1.238-1.238-0.762-3.721,1.062-5.546c1.559-1.558,3.595-2.128,4.928-1.49l9.397-9.397c-6.367-6.085-8.708-6.996-8.708-6.996 c-3.593-1.395-3.412-2.993,0.402-3.549c0,0,5.94-0.866,12.632,3.688l9.925-11.128L14.053,25.669l-1.95-14.231l14.276,2.406 l23.686,26.573l23.807-26.692l14.23-1.951L85.696,26.05L58.704,50.11l9.785,10.978c6.692-4.553,12.632-3.687,12.632-3.687 c3.814,0.555,3.995,2.153,0.402,3.548c0,0-2.341,0.911-8.71,6.999l9.396,9.396c1.333-0.64,3.371-0.07,4.931,1.49 C88.964,80.657,89.441,83.14,88.202,84.379z" class="st1" data-fill="c2" style="fill: rgb(0, 0, 0);"></path><metadata xmlns:d="https://loading.io/stock/"></metadata></g></defs>




















<g data-idx="0" data-dup="" dx="-128" dy="-128" style="opacity: 1; transform-origin: -43.7px -33.23px; transform: matrix3d(1, 0, 0, 0, 0, 1, 0, 0, 0, 0, 1, 0, 0, 0, 0, 1); animation: 1s linear 0s infinite normal forwards running animate; transform-box: view-box;"><g transform="translate(-128,-128)"><polygon points="95.261,98.953 73.345,96.2 74.22,90.577 94.461,93.724" fill="#B3B4B4" data-fill="c3" style="fill: rgb(0, 0, 0);"></polygon></g></g><g data-idx="0" data-dup="" dx="128" dy="-128" style="opacity: 1; transform-origin: 212.3px -33.23px; transform: matrix3d(1, 0, 0, 0, 0, 1, 0, 0, 0, 0, 1, 0, 0, 0, 0, 1); animation: 1s linear 0s infinite normal forwards running animate; transform-box: view-box;"><g transform="translate(128,-128)"><polygon points="95.261,98.953 73.345,96.2 74.22,90.577 94.461,93.724" fill="#B3B4B4" data-fill="c3" style="fill: rgb(0, 0, 0);"></polygon></g></g><g data-idx="1" data-dup="" dx="-128" dy="-128" style="opacity: 1; transform-origin: -89.9px 85.47px; transform: matrix3d(1, 0, 0, 0, 0, 1, 0, 0, 0, 0, 1, 0, 0, 0, 0, 1); animation: 1s linear -0.0271429s infinite normal forwards running animate; transform-box: view-box;"><g transform="translate(-128,-128)"><path d="M38.105,224.49c-0.05,0-0.099,0-0.149-0.001c-2.943-0.039-5.694-1.221-7.748-3.33
	c-4.239-4.352-4.147-11.342,0.205-15.581c2.108-2.054,4.884-3.157,7.833-3.124c2.943,0.039,5.694,1.222,7.748,3.33
	c4.239,4.352,4.147,11.342-0.205,15.58C43.716,223.383,40.992,224.49,38.105,224.49z M38.098,207.494
	c-1.567,0-3.044,0.6-4.169,1.695c-2.361,2.3-2.411,6.092-0.111,8.453c1.114,1.144,2.607,1.785,4.204,1.806
	c1.609,0.014,3.106-0.581,4.25-1.695c2.361-2.3,2.411-6.092,0.112-8.453l0,0c-1.114-1.144-2.607-1.785-4.204-1.806
	C38.152,207.494,38.125,207.494,38.098,207.494z" fill="#B3B4B4" data-fill="c3" style="fill: rgb(0, 0, 0);"></path></g></g><g data-idx="1" data-dup="" dx="128" dy="-128" style="opacity: 1; transform-origin: 166.1px 85.47px; transform: matrix3d(1, 0, 0, 0, 0, 1, 0, 0, 0, 0, 1, 0, 0, 0, 0, 1); animation: 1s linear -0.0271429s infinite normal forwards running animate; transform-box: view-box;"><g transform="translate(128,-128)"><path d="M38.105,224.49c-0.05,0-0.099,0-0.149-0.001c-2.943-0.039-5.694-1.221-7.748-3.33
	c-4.239-4.352-4.147-11.342,0.205-15.581c2.108-2.054,4.884-3.157,7.833-3.124c2.943,0.039,5.694,1.222,7.748,3.33
	c4.239,4.352,4.147,11.342-0.205,15.58C43.716,223.383,40.992,224.49,38.105,224.49z M38.098,207.494
	c-1.567,0-3.044,0.6-4.169,1.695c-2.361,2.3-2.411,6.092-0.111,8.453c1.114,1.144,2.607,1.785,4.204,1.806
	c1.609,0.014,3.106-0.581,4.25-1.695c2.361-2.3,2.411-6.092,0.112-8.453l0,0c-1.114-1.144-2.607-1.785-4.204-1.806
	C38.152,207.494,38.125,207.494,38.098,207.494z" fill="#B3B4B4" data-fill="c3" style="fill: rgb(0, 0, 0);"></path></g></g><g data-idx="2" data-dup="" dx="-128" dy="-128" style="opacity: 1; transform-origin: 106.49px -80.5px; transform: matrix3d(1, 0, 0, 0, 0, 1, 0, 0, 0, 0, 1, 0, 0, 0, 0, 1); animation: 1s linear -0.0542857s infinite normal forwards running animate; transform-box: view-box;"><g transform="translate(-128,-128)"><ellipse ry="4.4" rx="4.4" cy="47.5" cx="234.5" fill="#B3B4B4" transform="matrix(0.7249 -0.6888 0.6888 0.7249 31.7828 174.5914)" data-fill="c3" style="fill: rgb(0, 0, 0);"></ellipse></g></g><g data-idx="2" data-dup="" dx="128" dy="-128" style="opacity: 1; transform-origin: 362.49px -80.5px; transform: matrix3d(1, 0, 0, 0, 0, 1, 0, 0, 0, 0, 1, 0, 0, 0, 0, 1); animation: 1s linear -0.0542857s infinite normal forwards running animate; transform-box: view-box;"><g transform="translate(128,-128)"><ellipse ry="4.4" rx="4.4" cy="47.5" cx="234.5" fill="#B3B4B4" transform="matrix(0.7249 -0.6888 0.6888 0.7249 31.7828 174.5914)" data-fill="c3" style="fill: rgb(0, 0, 0);"></ellipse></g></g><g data-idx="3" data-dup="" dx="-128" dy="-128" style="opacity: 1; transform-origin: 28.53px 18.65px; transform: matrix3d(1, 0, 0, 0, 0, 1, 0, 0, 0, 0, 1, 0, 0, 0, 0, 1); animation: 1s linear -0.0814286s infinite normal forwards running animate; transform-box: view-box;"><g transform="translate(-128,-128)"><path d="M156.299,159.176l-1.714-5.053c3.929-1.333,6.042-5.614,4.709-9.543c-0.645-1.903-1.994-3.442-3.796-4.331
	c-1.803-0.89-3.844-1.024-5.747-0.378l-1.714-5.053c3.254-1.103,6.741-0.874,9.822,0.646c3.08,1.52,5.385,4.149,6.488,7.402
	C166.625,149.582,163.015,156.898,156.299,159.176z" fill="#B3B4B4" data-fill="c3" style="fill: rgb(0, 0, 0);"></path></g></g><g data-idx="3" data-dup="" dx="128" dy="-128" style="opacity: 1; transform-origin: 284.53px 18.65px; transform: matrix3d(1, 0, 0, 0, 0, 1, 0, 0, 0, 0, 1, 0, 0, 0, 0, 1); animation: 1s linear -0.0814286s infinite normal forwards running animate; transform-box: view-box;"><g transform="translate(128,-128)"><path d="M156.299,159.176l-1.714-5.053c3.929-1.333,6.042-5.614,4.709-9.543c-0.645-1.903-1.994-3.442-3.796-4.331
	c-1.803-0.89-3.844-1.024-5.747-0.378l-1.714-5.053c3.254-1.103,6.741-0.874,9.822,0.646c3.08,1.52,5.385,4.149,6.488,7.402
	C166.625,149.582,163.015,156.898,156.299,159.176z" fill="#B3B4B4" data-fill="c3" style="fill: rgb(0, 0, 0);"></path></g></g><g data-idx="4" data-dup="" dx="-128" dy="-128" style="opacity: 1; transform-origin: -25.51px 21.49px; transform: matrix3d(1, 0, 0, 0, 0, 1, 0, 0, 0, 0, 1, 0, 0, 0, 0, 1); animation: 1s linear -0.108571s infinite normal forwards running animate; transform-box: view-box;"><g transform="translate(-128,-128)"><ellipse ry="4.4" rx="4.4" cy="149.5" cx="102.5" fill="#B3B4B4" transform="matrix(0.7249 -0.6888 0.6888 0.7249 -74.7837 111.7244)" data-fill="c3" style="fill: rgb(0, 0, 0);"></ellipse></g></g><g data-idx="4" data-dup="" dx="128" dy="-128" style="opacity: 1; transform-origin: 230.49px 21.49px; transform: matrix3d(1, 0, 0, 0, 0, 1, 0, 0, 0, 0, 1, 0, 0, 0, 0, 1); animation: 1s linear -0.108571s infinite normal forwards running animate; transform-box: view-box;"><g transform="translate(128,-128)"><ellipse ry="4.4" rx="4.4" cy="149.5" cx="102.5" fill="#B3B4B4" transform="matrix(0.7249 -0.6888 0.6888 0.7249 -74.7837 111.7244)" data-fill="c3" style="fill: rgb(0, 0, 0);"></ellipse></g></g><g data-idx="5" data-dup="" dx="-128" dy="-128" style="opacity: 1; transform-origin: 114.17px 116.69px; transform: matrix3d(1, 0, 0, 0, 0, 1, 0, 0, 0, 0, 1, 0, 0, 0, 0, 1); animation: 1s linear -0.135714s infinite normal forwards running animate; transform-box: view-box;"><g transform="translate(-128,-128)"><polygon points="231.486,249.178 247.065,235.877 252.857,238.786 235.18,253.505" fill="#B3B4B4" data-fill="c3" style="fill: rgb(0, 0, 0);"></polygon></g></g><g data-idx="5" data-dup="" dx="128" dy="-128" style="opacity: 1; transform-origin: 370.17px 116.69px; transform: matrix3d(1, 0, 0, 0, 0, 1, 0, 0, 0, 0, 1, 0, 0, 0, 0, 1); animation: 1s linear -0.135714s infinite normal forwards running animate; transform-box: view-box;"><g transform="translate(128,-128)"><polygon points="231.486,249.178 247.065,235.877 252.857,238.786 235.18,253.505" fill="#B3B4B4" data-fill="c3" style="fill: rgb(0, 0, 0);"></polygon></g></g><g data-idx="6" data-dup="" dx="-128" dy="-128" style="opacity: 1; transform-origin: -20.2px -96.93px; transform: matrix3d(1, 0, 0, 0, 0, 1, 0, 0, 0, 0, 1, 0, 0, 0, 0, 1); animation: 1s linear -0.162857s infinite normal forwards running animate; transform-box: view-box;"><g transform="translate(-128,-128)"><polygon points="115.367,21.954 103.961,43.014 100.239,36.891 110.431,19.123" fill="#B3B4B4" data-fill="c3" style="fill: rgb(0, 0, 0);"></polygon></g></g><g data-idx="6" data-dup="" dx="128" dy="-128" style="opacity: 1; transform-origin: 235.8px -96.93px; transform: matrix3d(1, 0, 0, 0, 0, 1, 0, 0, 0, 0, 1, 0, 0, 0, 0, 1); animation: 1s linear -0.162857s infinite normal forwards running animate; transform-box: view-box;"><g transform="translate(128,-128)"><polygon points="115.367,21.954 103.961,43.014 100.239,36.891 110.431,19.123" fill="#B3B4B4" data-fill="c3" style="fill: rgb(0, 0, 0);"></polygon></g></g><g data-idx="7" data-dup="" dx="-128" dy="-128" style="opacity: 1; transform-origin: 94.1px -7.15px; transform: matrix3d(1, 0, 0, 0, 0, 1, 0, 0, 0, 0, 1, 0, 0, 0, 0, 1); animation: 1s linear -0.19s infinite normal forwards running animate; transform-box: view-box;"><g transform="translate(-128,-128)"><path d="M222.104,130.57c-0.044,0-0.088,0-0.132-0.001c-2.596-0.034-5.024-1.077-6.835-2.937
	c-3.74-3.84-3.659-10.006,0.181-13.746c1.86-1.812,4.308-2.785,6.91-2.756c2.596,0.034,5.024,1.078,6.835,2.938
	c3.74,3.839,3.659,10.006-0.181,13.745C227.054,129.594,224.651,130.57,222.104,130.57z M222.099,115.576
	c-1.382,0-2.686,0.53-3.678,1.496c-2.083,2.029-2.127,5.374-0.098,7.458c0.983,1.009,2.3,1.575,3.708,1.594
	c1.42,0.013,2.74-0.512,3.749-1.495c2.083-2.029,2.127-5.374,0.098-7.457l0,0c-0.983-1.009-2.3-1.575-3.708-1.594
	C222.146,115.576,222.122,115.576,222.099,115.576z" fill="#B3B4B4" data-fill="c3" style="fill: rgb(0, 0, 0);"></path></g></g><g data-idx="7" data-dup="" dx="128" dy="-128" style="opacity: 1; transform-origin: 350.1px -7.15px; transform: matrix3d(1, 0, 0, 0, 0, 1, 0, 0, 0, 0, 1, 0, 0, 0, 0, 1); animation: 1s linear -0.19s infinite normal forwards running animate; transform-box: view-box;"><g transform="translate(128,-128)"><path d="M222.104,130.57c-0.044,0-0.088,0-0.132-0.001c-2.596-0.034-5.024-1.077-6.835-2.937
	c-3.74-3.84-3.659-10.006,0.181-13.746c1.86-1.812,4.308-2.785,6.91-2.756c2.596,0.034,5.024,1.078,6.835,2.938
	c3.74,3.839,3.659,10.006-0.181,13.745C227.054,129.594,224.651,130.57,222.104,130.57z M222.099,115.576
	c-1.382,0-2.686,0.53-3.678,1.496c-2.083,2.029-2.127,5.374-0.098,7.458c0.983,1.009,2.3,1.575,3.708,1.594
	c1.42,0.013,2.74-0.512,3.749-1.495c2.083-2.029,2.127-5.374,0.098-7.457l0,0c-0.983-1.009-2.3-1.575-3.708-1.594
	C222.146,115.576,222.122,115.576,222.099,115.576z" fill="#B3B4B4" data-fill="c3" style="fill: rgb(0, 0, 0);"></path></g></g><g data-idx="8" data-dup="" dx="-128" dy="-128" style="opacity: 1; transform-origin: 46.66px -119.16px; transform: matrix3d(1, 0, 0, 0, 0, 1, 0, 0, 0, 0, 1, 0, 0, 0, 0, 1); animation: 1s linear -0.217143s infinite normal forwards running animate; transform-box: view-box;"><g transform="translate(-128,-128)"><path d="M184.509,10.022l-4.015,1.058c-0.822-3.122-4.032-4.993-7.154-4.17c-1.512,0.398-2.779,1.362-3.567,2.713
	c-0.788,1.352-1.003,2.929-0.603,4.44l-4.015,1.058c-0.681-2.585-0.315-5.28,1.031-7.589c1.346-2.309,3.511-3.956,6.096-4.637
	C177.619,1.489,183.103,4.687,184.509,10.022z" fill="#B3B4B4" data-fill="c3" style="fill: rgb(0, 0, 0);"></path></g></g><g data-idx="8" data-dup="" dx="128" dy="-128" style="opacity: 1; transform-origin: 302.66px -119.16px; transform: matrix3d(1, 0, 0, 0, 0, 1, 0, 0, 0, 0, 1, 0, 0, 0, 0, 1); animation: 1s linear -0.217143s infinite normal forwards running animate; transform-box: view-box;"><g transform="translate(128,-128)"><path d="M184.509,10.022l-4.015,1.058c-0.822-3.122-4.032-4.993-7.154-4.17c-1.512,0.398-2.779,1.362-3.567,2.713
	c-0.788,1.352-1.003,2.929-0.603,4.44l-4.015,1.058c-0.681-2.585-0.315-5.28,1.031-7.589c1.346-2.309,3.511-3.956,6.096-4.637
	C177.619,1.489,183.103,4.687,184.509,10.022z" fill="#B3B4B4" data-fill="c3" style="fill: rgb(0, 0, 0);"></path></g></g><g data-idx="9" data-dup="" dx="-128" dy="-128" style="opacity: 1; transform-origin: -6.92px 94.4px; transform: matrix3d(1, 0, 0, 0, 0, 1, 0, 0, 0, 0, 1, 0, 0, 0, 0, 1); animation: 1s linear -0.244286s infinite normal forwards running animate; transform-box: view-box;"><g transform="translate(-128,-128)"><g transform="matrix(0.9912 0.1325 -0.1325 0.9912 30.542 -14.083) translate(121.067,222.398) scale(0.6786666666666666)"><g data-icon="" transform="scale(1.000)">  <use y="-50" x="-50" xlink:href="#id-0.4748987739317174"></use>
</g></g></g></g><g data-idx="9" data-dup="" dx="128" dy="-128" style="opacity: 1; transform-origin: 249.08px 94.4px; transform: matrix3d(1, 0, 0, 0, 0, 1, 0, 0, 0, 0, 1, 0, 0, 0, 0, 1); animation: 1s linear -0.244286s infinite normal forwards running animate; transform-box: view-box;"><g transform="translate(128,-128)"><g transform="matrix(0.9912 0.1325 -0.1325 0.9912 30.542 -14.083) translate(121.067,222.398) scale(0.6786666666666666)"><g data-icon="" transform="scale(1.000)">  <use y="-50" x="-50" xlink:href="#id-0.4748987739317174"></use>
</g></g></g></g><g data-idx="10" data-dup="" dx="-128" dy="-128" style="opacity: 1; transform-origin: 33.26px -52.83px; transform: matrix3d(1, 0, 0, 0, 0, 1, 0, 0, 0, 0, 1, 0, 0, 0, 0, 1); animation: 1s linear -0.271429s infinite normal forwards running animate; transform-box: view-box;"><g transform="translate(-128,-128)"><g transform="matrix(-0.0456 0.999 -0.999 -0.0456 243.7065 -82.5047) translate(161.268,75.17099999999999) scale(0.47706666666666664)"><g data-icon="" transform="scale(1.000)">  <use y="-50" x="-50" xlink:href="#id-0.4748987739317174"></use>
</g></g></g></g><g data-idx="10" data-dup="" dx="128" dy="-128" style="opacity: 1; transform-origin: 289.26px -52.83px; transform: matrix3d(1, 0, 0, 0, 0, 1, 0, 0, 0, 0, 1, 0, 0, 0, 0, 1); animation: 1s linear -0.271429s infinite normal forwards running animate; transform-box: view-box;"><g transform="translate(128,-128)"><g transform="matrix(-0.0456 0.999 -0.999 -0.0456 243.7065 -82.5047) translate(161.268,75.17099999999999) scale(0.47706666666666664)"><g data-icon="" transform="scale(1.000)">  <use y="-50" x="-50" xlink:href="#id-0.4748987739317174"></use>
</g></g></g></g><g data-idx="11" data-dup="" dx="-128" dy="-128" style="opacity: 1; transform-origin: 87.31px 65.08px; transform: matrix3d(1, 0, 0, 0, 0, 1, 0, 0, 0, 0, 1, 0, 0, 0, 0, 1); animation: 1s linear -0.298571s infinite normal forwards running animate; transform-box: view-box;"><g transform="translate(-128,-128)"><g transform="matrix(0.5905 -0.8071 0.8071 0.5905 -67.6584 252.8308) translate(215.293,193.0815) scale(0.5214666666666667)"><g data-icon="" transform="scale(1.000)">  <use y="-50" x="-50" xlink:href="#id-0.4748987739317174"></use>
</g></g></g></g><g data-idx="11" data-dup="" dx="128" dy="-128" style="opacity: 1; transform-origin: 343.31px 65.08px; transform: matrix3d(1, 0, 0, 0, 0, 1, 0, 0, 0, 0, 1, 0, 0, 0, 0, 1); animation: 1s linear -0.298571s infinite normal forwards running animate; transform-box: view-box;"><g transform="translate(128,-128)"><g transform="matrix(0.5905 -0.8071 0.8071 0.5905 -67.6584 252.8308) translate(215.293,193.0815) scale(0.5214666666666667)"><g data-icon="" transform="scale(1.000)">  <use y="-50" x="-50" xlink:href="#id-0.4748987739317174"></use>
</g></g></g></g><g data-idx="12" data-dup="" dx="-128" dy="-128" style="opacity: 1; transform-origin: -78.81px -89.7px; transform: matrix3d(1, 0, 0, 0, 0, 1, 0, 0, 0, 0, 1, 0, 0, 0, 0, 1); animation: 1s linear -0.325714s infinite normal forwards running animate; transform-box: view-box;"><g transform="translate(-128,-128)"><g transform="matrix(-0.4749 -0.8801 0.8801 -0.4749 38.8277 99.7848) translate(49.185,38.308499999999995) scale(0.5980444444444444)"><g data-icon="" transform="scale(1.000)">  <use y="-50" x="-50" xlink:href="#id-0.4748987739317174"></use>
</g></g></g></g><g data-idx="12" data-dup="" dx="128" dy="-128" style="opacity: 1; transform-origin: 177.19px -89.7px; transform: matrix3d(1, 0, 0, 0, 0, 1, 0, 0, 0, 0, 1, 0, 0, 0, 0, 1); animation: 1s linear -0.325714s infinite normal forwards running animate; transform-box: view-box;"><g transform="translate(128,-128)"><g transform="matrix(-0.4749 -0.8801 0.8801 -0.4749 38.8277 99.7848) translate(49.185,38.308499999999995) scale(0.5980444444444444)"><g data-icon="" transform="scale(1.000)">  <use y="-50" x="-50" xlink:href="#id-0.4748987739317174"></use>
</g></g></g></g><g data-idx="13" data-dup="" dx="-128" dy="-128" style="opacity: 1; transform-origin: -89.57px 14.25px; transform: matrix3d(1, 0, 0, 0, 0, 1, 0, 0, 0, 0, 1, 0, 0, 0, 0, 1); animation: 1s linear -0.352857s infinite normal forwards running animate; transform-box: view-box;"><g transform="translate(-128,-128)"><g transform="matrix(0.7381 -0.6747 0.6747 0.7381 -85.9069 63.1885) translate(38.434,142.243) scale(0.607688888888889)"><g data-icon="" transform="scale(1.000)">  <use y="-50" x="-50" xlink:href="#id-0.4748987739317174"></use>
</g></g></g></g><g data-idx="13" data-dup="" dx="128" dy="-128" style="opacity: 1; transform-origin: 166.43px 14.25px; transform: matrix3d(1, 0, 0, 0, 0, 1, 0, 0, 0, 0, 1, 0, 0, 0, 0, 1); animation: 1s linear -0.352857s infinite normal forwards running animate; transform-box: view-box;"><g transform="translate(128,-128)"><g transform="matrix(0.7381 -0.6747 0.6747 0.7381 -85.9069 63.1885) translate(38.434,142.243) scale(0.607688888888889)"><g data-icon="" transform="scale(1.000)">  <use y="-50" x="-50" xlink:href="#id-0.4748987739317174"></use>
</g></g></g></g><g data-idx="0" data-dup="" dx="-128" dy="128" style="opacity: 1; transform-origin: -43.7px 222.76px; transform: matrix3d(1, 0, 0, 0, 0, 1, 0, 0, 0, 0, 1, 0, 0, 0, 0, 1); animation: 1s linear 0s infinite normal forwards running animate; transform-box: view-box;"><g transform="translate(-128,128)"><polygon points="95.261,98.953 73.345,96.2 74.22,90.577 94.461,93.724" fill="#B3B4B4" data-fill="c3" style="fill: rgb(0, 0, 0);"></polygon></g></g><g data-idx="0" data-dup="" dx="128" dy="128" style="opacity: 1; transform-origin: 212.3px 222.76px; transform: matrix3d(1, 0, 0, 0, 0, 1, 0, 0, 0, 0, 1, 0, 0, 0, 0, 1); animation: 1s linear 0s infinite normal forwards running animate; transform-box: view-box;"><g transform="translate(128,128)"><polygon points="95.261,98.953 73.345,96.2 74.22,90.577 94.461,93.724" fill="#B3B4B4" data-fill="c3" style="fill: rgb(0, 0, 0);"></polygon></g></g><g data-idx="1" data-dup="" dx="-128" dy="128" style="opacity: 1; transform-origin: -89.9px 341.47px; transform: matrix3d(1, 0, 0, 0, 0, 1, 0, 0, 0, 0, 1, 0, 0, 0, 0, 1); animation: 1s linear -0.0271429s infinite normal forwards running animate; transform-box: view-box;"><g transform="translate(-128,128)"><path d="M38.105,224.49c-0.05,0-0.099,0-0.149-0.001c-2.943-0.039-5.694-1.221-7.748-3.33
	c-4.239-4.352-4.147-11.342,0.205-15.581c2.108-2.054,4.884-3.157,7.833-3.124c2.943,0.039,5.694,1.222,7.748,3.33
	c4.239,4.352,4.147,11.342-0.205,15.58C43.716,223.383,40.992,224.49,38.105,224.49z M38.098,207.494
	c-1.567,0-3.044,0.6-4.169,1.695c-2.361,2.3-2.411,6.092-0.111,8.453c1.114,1.144,2.607,1.785,4.204,1.806
	c1.609,0.014,3.106-0.581,4.25-1.695c2.361-2.3,2.411-6.092,0.112-8.453l0,0c-1.114-1.144-2.607-1.785-4.204-1.806
	C38.152,207.494,38.125,207.494,38.098,207.494z" fill="#B3B4B4" data-fill="c3" style="fill: rgb(0, 0, 0);"></path></g></g><g data-idx="1" data-dup="" dx="128" dy="128" style="opacity: 1; transform-origin: 166.1px 341.47px; transform: matrix3d(1, 0, 0, 0, 0, 1, 0, 0, 0, 0, 1, 0, 0, 0, 0, 1); animation: 1s linear -0.0271429s infinite normal forwards running animate; transform-box: view-box;"><g transform="translate(128,128)"><path d="M38.105,224.49c-0.05,0-0.099,0-0.149-0.001c-2.943-0.039-5.694-1.221-7.748-3.33
	c-4.239-4.352-4.147-11.342,0.205-15.581c2.108-2.054,4.884-3.157,7.833-3.124c2.943,0.039,5.694,1.222,7.748,3.33
	c4.239,4.352,4.147,11.342-0.205,15.58C43.716,223.383,40.992,224.49,38.105,224.49z M38.098,207.494
	c-1.567,0-3.044,0.6-4.169,1.695c-2.361,2.3-2.411,6.092-0.111,8.453c1.114,1.144,2.607,1.785,4.204,1.806
	c1.609,0.014,3.106-0.581,4.25-1.695c2.361-2.3,2.411-6.092,0.112-8.453l0,0c-1.114-1.144-2.607-1.785-4.204-1.806
	C38.152,207.494,38.125,207.494,38.098,207.494z" fill="#B3B4B4" data-fill="c3" style="fill: rgb(0, 0, 0);"></path></g></g><g data-idx="2" data-dup="" dx="-128" dy="128" style="opacity: 1; transform-origin: 106.49px 175.5px; transform: matrix3d(1, 0, 0, 0, 0, 1, 0, 0, 0, 0, 1, 0, 0, 0, 0, 1); animation: 1s linear -0.0542857s infinite normal forwards running animate; transform-box: view-box;"><g transform="translate(-128,128)"><ellipse ry="4.4" rx="4.4" cy="47.5" cx="234.5" fill="#B3B4B4" transform="matrix(0.7249 -0.6888 0.6888 0.7249 31.7828 174.5914)" data-fill="c3" style="fill: rgb(0, 0, 0);"></ellipse></g></g><g data-idx="2" data-dup="" dx="128" dy="128" style="opacity: 1; transform-origin: 362.49px 175.5px; transform: matrix3d(1, 0, 0, 0, 0, 1, 0, 0, 0, 0, 1, 0, 0, 0, 0, 1); animation: 1s linear -0.0542857s infinite normal forwards running animate; transform-box: view-box;"><g transform="translate(128,128)"><ellipse ry="4.4" rx="4.4" cy="47.5" cx="234.5" fill="#B3B4B4" transform="matrix(0.7249 -0.6888 0.6888 0.7249 31.7828 174.5914)" data-fill="c3" style="fill: rgb(0, 0, 0);"></ellipse></g></g><g data-idx="3" data-dup="" dx="-128" dy="128" style="opacity: 1; transform-origin: 28.53px 274.65px; transform: matrix3d(1, 0, 0, 0, 0, 1, 0, 0, 0, 0, 1, 0, 0, 0, 0, 1); animation: 1s linear -0.0814286s infinite normal forwards running animate; transform-box: view-box;"><g transform="translate(-128,128)"><path d="M156.299,159.176l-1.714-5.053c3.929-1.333,6.042-5.614,4.709-9.543c-0.645-1.903-1.994-3.442-3.796-4.331
	c-1.803-0.89-3.844-1.024-5.747-0.378l-1.714-5.053c3.254-1.103,6.741-0.874,9.822,0.646c3.08,1.52,5.385,4.149,6.488,7.402
	C166.625,149.582,163.015,156.898,156.299,159.176z" fill="#B3B4B4" data-fill="c3" style="fill: rgb(0, 0, 0);"></path></g></g><g data-idx="3" data-dup="" dx="128" dy="128" style="opacity: 1; transform-origin: 284.53px 274.65px; transform: matrix3d(1, 0, 0, 0, 0, 1, 0, 0, 0, 0, 1, 0, 0, 0, 0, 1); animation: 1s linear -0.0814286s infinite normal forwards running animate; transform-box: view-box;"><g transform="translate(128,128)"><path d="M156.299,159.176l-1.714-5.053c3.929-1.333,6.042-5.614,4.709-9.543c-0.645-1.903-1.994-3.442-3.796-4.331
	c-1.803-0.89-3.844-1.024-5.747-0.378l-1.714-5.053c3.254-1.103,6.741-0.874,9.822,0.646c3.08,1.52,5.385,4.149,6.488,7.402
	C166.625,149.582,163.015,156.898,156.299,159.176z" fill="#B3B4B4" data-fill="c3" style="fill: rgb(0, 0, 0);"></path></g></g><g data-idx="4" data-dup="" dx="-128" dy="128" style="opacity: 1; transform-origin: -25.51px 277.49px; transform: matrix3d(1, 0, 0, 0, 0, 1, 0, 0, 0, 0, 1, 0, 0, 0, 0, 1); animation: 1s linear -0.108571s infinite normal forwards running animate; transform-box: view-box;"><g transform="translate(-128,128)"><ellipse ry="4.4" rx="4.4" cy="149.5" cx="102.5" fill="#B3B4B4" transform="matrix(0.7249 -0.6888 0.6888 0.7249 -74.7837 111.7244)" data-fill="c3" style="fill: rgb(0, 0, 0);"></ellipse></g></g><g data-idx="4" data-dup="" dx="128" dy="128" style="opacity: 1; transform-origin: 230.49px 277.49px; transform: matrix3d(1, 0, 0, 0, 0, 1, 0, 0, 0, 0, 1, 0, 0, 0, 0, 1); animation: 1s linear -0.108571s infinite normal forwards running animate; transform-box: view-box;"><g transform="translate(128,128)"><ellipse ry="4.4" rx="4.4" cy="149.5" cx="102.5" fill="#B3B4B4" transform="matrix(0.7249 -0.6888 0.6888 0.7249 -74.7837 111.7244)" data-fill="c3" style="fill: rgb(0, 0, 0);"></ellipse></g></g><g data-idx="5" data-dup="" dx="-128" dy="128" style="opacity: 1; transform-origin: 114.17px 372.69px; transform: matrix3d(1, 0, 0, 0, 0, 1, 0, 0, 0, 0, 1, 0, 0, 0, 0, 1); animation: 1s linear -0.135714s infinite normal forwards running animate; transform-box: view-box;"><g transform="translate(-128,128)"><polygon points="231.486,249.178 247.065,235.877 252.857,238.786 235.18,253.505" fill="#B3B4B4" data-fill="c3" style="fill: rgb(0, 0, 0);"></polygon></g></g><g data-idx="5" data-dup="" dx="128" dy="128" style="opacity: 1; transform-origin: 370.17px 372.69px; transform: matrix3d(1, 0, 0, 0, 0, 1, 0, 0, 0, 0, 1, 0, 0, 0, 0, 1); animation: 1s linear -0.135714s infinite normal forwards running animate; transform-box: view-box;"><g transform="translate(128,128)"><polygon points="231.486,249.178 247.065,235.877 252.857,238.786 235.18,253.505" fill="#B3B4B4" data-fill="c3" style="fill: rgb(0, 0, 0);"></polygon></g></g><g data-idx="6" data-dup="" dx="-128" dy="128" style="opacity: 1; transform-origin: -20.2px 159.07px; transform: matrix3d(1, 0, 0, 0, 0, 1, 0, 0, 0, 0, 1, 0, 0, 0, 0, 1); animation: 1s linear -0.162857s infinite normal forwards running animate; transform-box: view-box;"><g transform="translate(-128,128)"><polygon points="115.367,21.954 103.961,43.014 100.239,36.891 110.431,19.123" fill="#B3B4B4" data-fill="c3" style="fill: rgb(0, 0, 0);"></polygon></g></g><g data-idx="6" data-dup="" dx="128" dy="128" style="opacity: 1; transform-origin: 235.8px 159.07px; transform: matrix3d(1, 0, 0, 0, 0, 1, 0, 0, 0, 0, 1, 0, 0, 0, 0, 1); animation: 1s linear -0.162857s infinite normal forwards running animate; transform-box: view-box;"><g transform="translate(128,128)"><polygon points="115.367,21.954 103.961,43.014 100.239,36.891 110.431,19.123" fill="#B3B4B4" data-fill="c3" style="fill: rgb(0, 0, 0);"></polygon></g></g><g data-idx="7" data-dup="" dx="-128" dy="128" style="opacity: 1; transform-origin: 94.1px 248.85px; transform: matrix3d(1, 0, 0, 0, 0, 1, 0, 0, 0, 0, 1, 0, 0, 0, 0, 1); animation: 1s linear -0.19s infinite normal forwards running animate; transform-box: view-box;"><g transform="translate(-128,128)"><path d="M222.104,130.57c-0.044,0-0.088,0-0.132-0.001c-2.596-0.034-5.024-1.077-6.835-2.937
	c-3.74-3.84-3.659-10.006,0.181-13.746c1.86-1.812,4.308-2.785,6.91-2.756c2.596,0.034,5.024,1.078,6.835,2.938
	c3.74,3.839,3.659,10.006-0.181,13.745C227.054,129.594,224.651,130.57,222.104,130.57z M222.099,115.576
	c-1.382,0-2.686,0.53-3.678,1.496c-2.083,2.029-2.127,5.374-0.098,7.458c0.983,1.009,2.3,1.575,3.708,1.594
	c1.42,0.013,2.74-0.512,3.749-1.495c2.083-2.029,2.127-5.374,0.098-7.457l0,0c-0.983-1.009-2.3-1.575-3.708-1.594
	C222.146,115.576,222.122,115.576,222.099,115.576z" fill="#B3B4B4" data-fill="c3" style="fill: rgb(0, 0, 0);"></path></g></g><g data-idx="7" data-dup="" dx="128" dy="128" style="opacity: 1; transform-origin: 350.1px 248.85px; transform: matrix3d(1, 0, 0, 0, 0, 1, 0, 0, 0, 0, 1, 0, 0, 0, 0, 1); animation: 1s linear -0.19s infinite normal forwards running animate; transform-box: view-box;"><g transform="translate(128,128)"><path d="M222.104,130.57c-0.044,0-0.088,0-0.132-0.001c-2.596-0.034-5.024-1.077-6.835-2.937
	c-3.74-3.84-3.659-10.006,0.181-13.746c1.86-1.812,4.308-2.785,6.91-2.756c2.596,0.034,5.024,1.078,6.835,2.938
	c3.74,3.839,3.659,10.006-0.181,13.745C227.054,129.594,224.651,130.57,222.104,130.57z M222.099,115.576
	c-1.382,0-2.686,0.53-3.678,1.496c-2.083,2.029-2.127,5.374-0.098,7.458c0.983,1.009,2.3,1.575,3.708,1.594
	c1.42,0.013,2.74-0.512,3.749-1.495c2.083-2.029,2.127-5.374,0.098-7.457l0,0c-0.983-1.009-2.3-1.575-3.708-1.594
	C222.146,115.576,222.122,115.576,222.099,115.576z" fill="#B3B4B4" data-fill="c3" style="fill: rgb(0, 0, 0);"></path></g></g><g data-idx="8" data-dup="" dx="-128" dy="128" style="opacity: 1; transform-origin: 46.66px 136.84px; transform: matrix3d(1, 0, 0, 0, 0, 1, 0, 0, 0, 0, 1, 0, 0, 0, 0, 1); animation: 1s linear -0.217143s infinite normal forwards running animate; transform-box: view-box;"><g transform="translate(-128,128)"><path d="M184.509,10.022l-4.015,1.058c-0.822-3.122-4.032-4.993-7.154-4.17c-1.512,0.398-2.779,1.362-3.567,2.713
	c-0.788,1.352-1.003,2.929-0.603,4.44l-4.015,1.058c-0.681-2.585-0.315-5.28,1.031-7.589c1.346-2.309,3.511-3.956,6.096-4.637
	C177.619,1.489,183.103,4.687,184.509,10.022z" fill="#B3B4B4" data-fill="c3" style="fill: rgb(0, 0, 0);"></path></g></g><g data-idx="8" data-dup="" dx="128" dy="128" style="opacity: 1; transform-origin: 302.66px 136.84px; transform: matrix3d(1, 0, 0, 0, 0, 1, 0, 0, 0, 0, 1, 0, 0, 0, 0, 1); animation: 1s linear -0.217143s infinite normal forwards running animate; transform-box: view-box;"><g transform="translate(128,128)"><path d="M184.509,10.022l-4.015,1.058c-0.822-3.122-4.032-4.993-7.154-4.17c-1.512,0.398-2.779,1.362-3.567,2.713
	c-0.788,1.352-1.003,2.929-0.603,4.44l-4.015,1.058c-0.681-2.585-0.315-5.28,1.031-7.589c1.346-2.309,3.511-3.956,6.096-4.637
	C177.619,1.489,183.103,4.687,184.509,10.022z" fill="#B3B4B4" data-fill="c3" style="fill: rgb(0, 0, 0);"></path></g></g><g data-idx="9" data-dup="" dx="-128" dy="128" style="opacity: 1; transform-origin: -6.92px 350.4px; transform: matrix3d(1, 0, 0, 0, 0, 1, 0, 0, 0, 0, 1, 0, 0, 0, 0, 1); animation: 1s linear -0.244286s infinite normal forwards running animate; transform-box: view-box;"><g transform="translate(-128,128)"><g transform="matrix(0.9912 0.1325 -0.1325 0.9912 30.542 -14.083) translate(121.067,222.398) scale(0.6786666666666666)"><g data-icon="" transform="scale(1.000)">  <use y="-50" x="-50" xlink:href="#id-0.4748987739317174"></use>
</g></g></g></g><g data-idx="9" data-dup="" dx="128" dy="128" style="opacity: 1; transform-origin: 249.08px 350.4px; transform: matrix3d(1, 0, 0, 0, 0, 1, 0, 0, 0, 0, 1, 0, 0, 0, 0, 1); animation: 1s linear -0.244286s infinite normal forwards running animate; transform-box: view-box;"><g transform="translate(128,128)"><g transform="matrix(0.9912 0.1325 -0.1325 0.9912 30.542 -14.083) translate(121.067,222.398) scale(0.6786666666666666)"><g data-icon="" transform="scale(1.000)">  <use y="-50" x="-50" xlink:href="#id-0.4748987739317174"></use>
</g></g></g></g><g data-idx="10" data-dup="" dx="-128" dy="128" style="opacity: 1; transform-origin: 33.26px 203.17px; transform: matrix3d(1, 0, 0, 0, 0, 1, 0, 0, 0, 0, 1, 0, 0, 0, 0, 1); animation: 1s linear -0.271429s infinite normal forwards running animate; transform-box: view-box;"><g transform="translate(-128,128)"><g transform="matrix(-0.0456 0.999 -0.999 -0.0456 243.7065 -82.5047) translate(161.268,75.17099999999999) scale(0.47706666666666664)"><g data-icon="" transform="scale(1.000)">  <use y="-50" x="-50" xlink:href="#id-0.4748987739317174"></use>
</g></g></g></g><g data-idx="10" data-dup="" dx="128" dy="128" style="opacity: 1; transform-origin: 289.26px 203.17px; transform: matrix3d(1, 0, 0, 0, 0, 1, 0, 0, 0, 0, 1, 0, 0, 0, 0, 1); animation: 1s linear -0.271429s infinite normal forwards running animate; transform-box: view-box;"><g transform="translate(128,128)"><g transform="matrix(-0.0456 0.999 -0.999 -0.0456 243.7065 -82.5047) translate(161.268,75.17099999999999) scale(0.47706666666666664)"><g data-icon="" transform="scale(1.000)">  <use y="-50" x="-50" xlink:href="#id-0.4748987739317174"></use>
</g></g></g></g><g data-idx="11" data-dup="" dx="-128" dy="128" style="opacity: 1; transform-origin: 87.31px 321.08px; transform: matrix3d(1, 0, 0, 0, 0, 1, 0, 0, 0, 0, 1, 0, 0, 0, 0, 1); animation: 1s linear -0.298571s infinite normal forwards running animate; transform-box: view-box;"><g transform="translate(-128,128)"><g transform="matrix(0.5905 -0.8071 0.8071 0.5905 -67.6584 252.8308) translate(215.293,193.0815) scale(0.5214666666666667)"><g data-icon="" transform="scale(1.000)">  <use y="-50" x="-50" xlink:href="#id-0.4748987739317174"></use>
</g></g></g></g><g data-idx="11" data-dup="" dx="128" dy="128" style="opacity: 1; transform-origin: 343.31px 321.08px; transform: matrix3d(1, 0, 0, 0, 0, 1, 0, 0, 0, 0, 1, 0, 0, 0, 0, 1); animation: 1s linear -0.298571s infinite normal forwards running animate; transform-box: view-box;"><g transform="translate(128,128)"><g transform="matrix(0.5905 -0.8071 0.8071 0.5905 -67.6584 252.8308) translate(215.293,193.0815) scale(0.5214666666666667)"><g data-icon="" transform="scale(1.000)">  <use y="-50" x="-50" xlink:href="#id-0.4748987739317174"></use>
</g></g></g></g><g data-idx="12" data-dup="" dx="-128" dy="128" style="opacity: 1; transform-origin: -78.81px 166.3px; transform: matrix3d(1, 0, 0, 0, 0, 1, 0, 0, 0, 0, 1, 0, 0, 0, 0, 1); animation: 1s linear -0.325714s infinite normal forwards running animate; transform-box: view-box;"><g transform="translate(-128,128)"><g transform="matrix(-0.4749 -0.8801 0.8801 -0.4749 38.8277 99.7848) translate(49.185,38.308499999999995) scale(0.5980444444444444)"><g data-icon="" transform="scale(1.000)">  <use y="-50" x="-50" xlink:href="#id-0.4748987739317174"></use>
</g></g></g></g><g data-idx="12" data-dup="" dx="128" dy="128" style="opacity: 1; transform-origin: 177.19px 166.3px; transform: matrix3d(1, 0, 0, 0, 0, 1, 0, 0, 0, 0, 1, 0, 0, 0, 0, 1); animation: 1s linear -0.325714s infinite normal forwards running animate; transform-box: view-box;"><g transform="translate(128,128)"><g transform="matrix(-0.4749 -0.8801 0.8801 -0.4749 38.8277 99.7848) translate(49.185,38.308499999999995) scale(0.5980444444444444)"><g data-icon="" transform="scale(1.000)">  <use y="-50" x="-50" xlink:href="#id-0.4748987739317174"></use>
</g></g></g></g><g data-idx="13" data-dup="" dx="-128" dy="128" style="opacity: 1; transform-origin: -89.57px 270.25px; transform: matrix3d(1, 0, 0, 0, 0, 1, 0, 0, 0, 0, 1, 0, 0, 0, 0, 1); animation: 1s linear -0.352857s infinite normal forwards running animate; transform-box: view-box;"><g transform="translate(-128,128)"><g transform="matrix(0.7381 -0.6747 0.6747 0.7381 -85.9069 63.1885) translate(38.434,142.243) scale(0.607688888888889)"><g data-icon="" transform="scale(1.000)">  <use y="-50" x="-50" xlink:href="#id-0.4748987739317174"></use>
</g></g></g></g><g data-idx="13" data-dup="" dx="128" dy="128" style="opacity: 1; transform-origin: 166.43px 270.25px; transform: matrix3d(1, 0, 0, 0, 0, 1, 0, 0, 0, 0, 1, 0, 0, 0, 0, 1); animation: 1s linear -0.352857s infinite normal forwards running animate; transform-box: view-box;"><g transform="translate(128,128)"><g transform="matrix(0.7381 -0.6747 0.6747 0.7381 -85.9069 63.1885) translate(38.434,142.243) scale(0.607688888888889)"><g data-icon="" transform="scale(1.000)">  <use y="-50" x="-50" xlink:href="#id-0.4748987739317174"></use>
</g></g></g></g></g><style type="text/css">@keyframes animate { 0.00% {transform: translate(0.00px,0.00px) rotate(0.00deg) scale(1.00, 1.00) skew(0deg, 0.00deg) ;opacity: 1.00;}2.00% {transform: translate(0.00px,0.00px) rotate(0.00deg) scale(1.06, 1.06) ;}6.00% {transform: translate(0.00px,0.00px) rotate(0.00deg) scale(1.11, 1.11) ;}10.00% {transform: translate(0.00px,0.00px) rotate(0.00deg) scale(1.14, 1.14) ;}14.00% {transform: translate(0.00px,0.00px) rotate(0.00deg) scale(1.16, 1.16) ;}18.00% {transform: translate(0.00px,0.00px) rotate(0.00deg) scale(1.18, 1.18) ;}22.00% {transform: translate(0.00px,0.00px) rotate(0.00deg) scale(1.19, 1.19) ;}26.00% {transform: translate(0.00px,0.00px) rotate(0.00deg) scale(1.20, 1.20) ;}30.00% {transform: translate(0.00px,0.00px) rotate(0.00deg) scale(1.20, 1.20) ;}32.00% {transform: translate(0.00px,0.00px) rotate(0.00deg) scale(1.20, 1.20) ;}36.00% {transform: translate(0.00px,0.00px) rotate(0.00deg) scale(1.20, 1.20) ;}40.00% {transform: translate(0.00px,0.00px) rotate(0.00deg) scale(1.19, 1.19) ;}44.00% {transform: translate(0.00px,0.00px) rotate(0.00deg) scale(1.18, 1.18) ;}48.00% {transform: translate(0.00px,0.00px) rotate(0.00deg) scale(1.16, 1.16) ;}52.00% {transform: translate(0.00px,0.00px) rotate(0.00deg) scale(1.14, 1.14) ;}56.00% {transform: translate(0.00px,0.00px) rotate(0.00deg) scale(1.11, 1.11) ;}60.00% {transform: translate(0.00px,0.00px) rotate(0.00deg) scale(1.07, 1.07) ;}62.00% {animation-timing-function: cubic-bezier(0.75,0.45,0.39,0.14);transform: translate(0.00px,0.00px) rotate(0.00deg) scale(1.03, 1.03) ;}66.00% {animation-timing-function: cubic-bezier(0.65,0.73,0.31,0.40);transform: translate(0.00px,0.00px) rotate(0.00deg) scale(1.06, 1.06) ;}72.00% {transform: translate(0.00px,0.00px) rotate(0.00deg) scale(1.10, 1.10) ;}76.00% {transform: translate(0.00px,0.00px) rotate(0.00deg) scale(1.11, 1.11) ;}80.00% {transform: translate(0.00px,0.00px) rotate(0.00deg) scale(1.11, 1.11) ;}82.00% {animation-timing-function: cubic-bezier(0.74,0.47,0.38,0.16);transform: translate(0.00px,0.00px) rotate(0.00deg) scale(1.11, 1.11) ;}88.00% {transform: translate(0.00px,0.00px) rotate(0.00deg) scale(1.10, 1.10) ;}92.00% {transform: translate(0.00px,0.00px) rotate(0.00deg) scale(1.09, 1.09) ;}96.00% {transform: translate(0.00px,0.00px) rotate(0.00deg) scale(1.07, 1.07) ;}100.00% {transform: translate(0.00px,0.00px) rotate(0.00deg) scale(1.00, 1.00) ;} }</style><!-- [ldio] generated by https://loading.io --></svg>